ply
format ascii 1.0
comment : MagicaVoxel @ Ephtracy
element vertex 1928
property float x
property float y
property float z
property uchar red
property uchar green
property uchar blue
end_header
5 2 0 170 170 170
6 2 0 170 170 170
7 2 0 170 170 170
8 2 0 170 170 170
9 2 0 170 170 170
10 2 0 170 170 170
11 2 0 170 170 170
12 2 0 170 170 170
13 2 0 170 170 170
14 2 0 170 170 170
4 3 0 170 170 170
5 3 0 170 170 170
6 3 0 170 170 170
7 3 0 170 170 170
8 3 0 170 170 170
9 3 0 170 170 170
10 3 0 170 170 170
11 3 0 170 170 170
12 3 0 170 170 170
13 3 0 170 170 170
14 3 0 170 170 170
15 3 0 170 170 170
3 4 0 170 170 170
4 4 0 170 170 170
5 4 0 170 170 170
6 4 0 170 170 170
7 4 0 170 170 170
8 4 0 170 170 170
9 4 0 170 170 170
10 4 0 170 170 170
11 4 0 170 170 170
12 4 0 170 170 170
13 4 0 170 170 170
14 4 0 170 170 170
15 4 0 170 170 170
16 4 0 170 170 170
2 5 0 170 170 170
3 5 0 170 170 170
4 5 0 170 170 170
5 5 0 170 170 170
6 5 0 170 170 170
7 5 0 170 170 170
8 5 0 170 170 170
9 5 0 170 170 170
10 5 0 170 170 170
11 5 0 170 170 170
12 5 0 170 170 170
13 5 0 170 170 170
14 5 0 170 170 170
15 5 0 170 170 170
16 5 0 170 170 170
17 5 0 170 170 170
2 6 0 170 170 170
3 6 0 170 170 170
4 6 0 170 170 170
5 6 0 170 170 170
6 6 0 170 170 170
7 6 0 170 170 170
8 6 0 170 170 170
9 6 0 170 170 170
10 6 0 170 170 170
11 6 0 170 170 170
12 6 0 170 170 170
13 6 0 170 170 170
14 6 0 170 170 170
15 6 0 170 170 170
16 6 0 170 170 170
17 6 0 170 170 170
2 7 0 170 170 170
3 7 0 170 170 170
4 7 0 170 170 170
5 7 0 170 170 170
6 7 0 170 170 170
7 7 0 170 170 170
8 7 0 170 170 170
9 7 0 170 170 170
10 7 0 170 170 170
11 7 0 170 170 170
12 7 0 170 170 170
13 7 0 170 170 170
14 7 0 170 170 170
15 7 0 170 170 170
16 7 0 170 170 170
17 7 0 170 170 170
2 8 0 170 170 170
3 8 0 170 170 170
4 8 0 170 170 170
5 8 0 170 170 170
6 8 0 170 170 170
7 8 0 170 170 170
8 8 0 170 170 170
9 8 0 170 170 170
10 8 0 170 170 170
11 8 0 170 170 170
12 8 0 170 170 170
13 8 0 170 170 170
14 8 0 170 170 170
15 8 0 170 170 170
16 8 0 170 170 170
17 8 0 170 170 170
2 9 0 170 170 170
3 9 0 170 170 170
4 9 0 170 170 170
5 9 0 170 170 170
6 9 0 170 170 170
7 9 0 170 170 170
8 9 0 170 170 170
9 9 0 170 170 170
10 9 0 170 170 170
11 9 0 170 170 170
12 9 0 170 170 170
13 9 0 170 170 170
14 9 0 170 170 170
15 9 0 170 170 170
16 9 0 170 170 170
17 9 0 170 170 170
2 10 0 170 170 170
3 10 0 170 170 170
4 10 0 170 170 170
5 10 0 170 170 170
6 10 0 170 170 170
7 10 0 170 170 170
8 10 0 170 170 170
9 10 0 170 170 170
10 10 0 170 170 170
11 10 0 170 170 170
12 10 0 170 170 170
13 10 0 170 170 170
14 10 0 170 170 170
15 10 0 170 170 170
16 10 0 170 170 170
17 10 0 170 170 170
2 11 0 170 170 170
3 11 0 170 170 170
4 11 0 170 170 170
5 11 0 170 170 170
6 11 0 170 170 170
7 11 0 170 170 170
8 11 0 170 170 170
9 11 0 170 170 170
10 11 0 170 170 170
11 11 0 170 170 170
12 11 0 170 170 170
13 11 0 170 170 170
14 11 0 170 170 170
15 11 0 170 170 170
16 11 0 170 170 170
17 11 0 170 170 170
2 12 0 170 170 170
3 12 0 170 170 170
4 12 0 170 170 170
5 12 0 170 170 170
6 12 0 170 170 170
7 12 0 170 170 170
8 12 0 170 170 170
9 12 0 170 170 170
10 12 0 170 170 170
11 12 0 170 170 170
12 12 0 170 170 170
13 12 0 170 170 170
14 12 0 170 170 170
15 12 0 170 170 170
16 12 0 170 170 170
17 12 0 170 170 170
2 13 0 170 170 170
3 13 0 170 170 170
4 13 0 170 170 170
5 13 0 170 170 170
6 13 0 170 170 170
7 13 0 170 170 170
8 13 0 170 170 170
9 13 0 170 170 170
10 13 0 170 170 170
11 13 0 170 170 170
12 13 0 170 170 170
13 13 0 170 170 170
14 13 0 170 170 170
15 13 0 170 170 170
16 13 0 170 170 170
17 13 0 170 170 170
2 14 0 170 170 170
3 14 0 170 170 170
4 14 0 170 170 170
5 14 0 170 170 170
6 14 0 170 170 170
7 14 0 170 170 170
8 14 0 170 170 170
9 14 0 170 170 170
10 14 0 170 170 170
11 14 0 170 170 170
12 14 0 170 170 170
13 14 0 170 170 170
14 14 0 170 170 170
15 14 0 170 170 170
16 14 0 170 170 170
17 14 0 170 170 170
3 15 0 170 170 170
4 15 0 170 170 170
5 15 0 170 170 170
6 15 0 170 170 170
7 15 0 170 170 170
8 15 0 170 170 170
9 15 0 170 170 170
10 15 0 170 170 170
11 15 0 170 170 170
12 15 0 170 170 170
13 15 0 170 170 170
14 15 0 170 170 170
15 15 0 170 170 170
16 15 0 170 170 170
4 16 0 170 170 170
5 16 0 170 170 170
6 16 0 170 170 170
7 16 0 170 170 170
8 16 0 170 170 170
9 16 0 170 170 170
10 16 0 170 170 170
11 16 0 170 170 170
12 16 0 170 170 170
13 16 0 170 170 170
14 16 0 170 170 170
15 16 0 170 170 170
5 17 0 170 170 170
6 17 0 170 170 170
7 17 0 170 170 170
8 17 0 170 170 170
9 17 0 170 170 170
10 17 0 170 170 170
11 17 0 170 170 170
12 17 0 170 170 170
13 17 0 170 170 170
14 17 0 170 170 170
5 1 1 170 170 170
6 1 1 170 170 170
7 1 1 170 170 170
8 1 1 170 170 170
9 1 1 170 170 170
10 1 1 170 170 170
11 1 1 170 170 170
12 1 1 170 170 170
13 1 1 170 170 170
14 1 1 170 170 170
4 2 1 170 170 170
5 2 1 170 170 170
6 2 1 170 170 170
7 2 1 170 170 170
8 2 1 170 170 170
9 2 1 170 170 170
10 2 1 170 170 170
11 2 1 170 170 170
12 2 1 170 170 170
13 2 1 170 170 170
14 2 1 170 170 170
15 2 1 170 170 170
3 3 1 170 170 170
4 3 1 170 170 170
5 3 1 170 170 170
6 3 1 170 170 170
7 3 1 170 170 170
8 3 1 170 170 170
9 3 1 170 170 170
10 3 1 170 170 170
11 3 1 170 170 170
12 3 1 170 170 170
13 3 1 170 170 170
14 3 1 170 170 170
15 3 1 170 170 170
16 3 1 170 170 170
2 4 1 170 170 170
3 4 1 170 170 170
4 4 1 170 170 170
5 4 1 170 170 170
6 4 1 170 170 170
7 4 1 170 170 170
8 4 1 170 170 170
9 4 1 170 170 170
10 4 1 170 170 170
11 4 1 170 170 170
12 4 1 170 170 170
13 4 1 170 170 170
14 4 1 170 170 170
15 4 1 170 170 170
16 4 1 170 170 170
17 4 1 170 170 170
1 5 1 170 170 170
2 5 1 170 170 170
3 5 1 170 170 170
4 5 1 170 170 170
5 5 1 170 170 170
6 5 1 170 170 170
7 5 1 170 170 170
8 5 1 170 170 170
9 5 1 170 170 170
10 5 1 170 170 170
11 5 1 170 170 170
12 5 1 170 170 170
13 5 1 170 170 170
14 5 1 170 170 170
15 5 1 170 170 170
16 5 1 170 170 170
17 5 1 170 170 170
18 5 1 170 170 170
1 6 1 170 170 170
2 6 1 170 170 170
3 6 1 170 170 170
4 6 1 170 170 170
5 6 1 170 170 170
6 6 1 170 170 170
7 6 1 170 170 170
8 6 1 170 170 170
9 6 1 170 170 170
10 6 1 170 170 170
11 6 1 170 170 170
12 6 1 170 170 170
13 6 1 170 170 170
14 6 1 170 170 170
15 6 1 170 170 170
16 6 1 170 170 170
17 6 1 170 170 170
18 6 1 170 170 170
1 7 1 170 170 170
2 7 1 170 170 170
3 7 1 170 170 170
4 7 1 170 170 170
5 7 1 170 170 170
6 7 1 170 170 170
7 7 1 170 170 170
8 7 1 170 170 170
9 7 1 170 170 170
10 7 1 170 170 170
11 7 1 170 170 170
12 7 1 170 170 170
13 7 1 170 170 170
14 7 1 170 170 170
15 7 1 170 170 170
16 7 1 170 170 170
17 7 1 170 170 170
18 7 1 170 170 170
1 8 1 170 170 170
2 8 1 170 170 170
3 8 1 170 170 170
4 8 1 170 170 170
5 8 1 170 170 170
6 8 1 170 170 170
7 8 1 170 170 170
8 8 1 170 170 170
9 8 1 170 170 170
10 8 1 170 170 170
11 8 1 170 170 170
12 8 1 170 170 170
13 8 1 170 170 170
14 8 1 170 170 170
15 8 1 170 170 170
16 8 1 170 170 170
17 8 1 170 170 170
18 8 1 170 170 170
1 9 1 170 170 170
2 9 1 170 170 170
3 9 1 170 170 170
4 9 1 170 170 170
5 9 1 170 170 170
6 9 1 170 170 170
7 9 1 170 170 170
8 9 1 170 170 170
9 9 1 170 170 170
10 9 1 170 170 170
11 9 1 170 170 170
12 9 1 170 170 170
13 9 1 170 170 170
14 9 1 170 170 170
15 9 1 170 170 170
16 9 1 170 170 170
17 9 1 170 170 170
18 9 1 170 170 170
1 10 1 170 170 170
2 10 1 170 170 170
3 10 1 170 170 170
4 10 1 170 170 170
5 10 1 170 170 170
6 10 1 170 170 170
7 10 1 170 170 170
8 10 1 170 170 170
9 10 1 170 170 170
10 10 1 170 170 170
11 10 1 170 170 170
12 10 1 170 170 170
13 10 1 170 170 170
14 10 1 170 170 170
15 10 1 170 170 170
16 10 1 170 170 170
17 10 1 170 170 170
18 10 1 170 170 170
1 11 1 170 170 170
2 11 1 170 170 170
3 11 1 170 170 170
4 11 1 170 170 170
5 11 1 170 170 170
6 11 1 170 170 170
7 11 1 170 170 170
8 11 1 170 170 170
9 11 1 170 170 170
10 11 1 170 170 170
11 11 1 170 170 170
12 11 1 170 170 170
13 11 1 170 170 170
14 11 1 170 170 170
15 11 1 170 170 170
16 11 1 170 170 170
17 11 1 170 170 170
18 11 1 170 170 170
1 12 1 170 170 170
2 12 1 170 170 170
3 12 1 170 170 170
4 12 1 170 170 170
5 12 1 170 170 170
6 12 1 170 170 170
7 12 1 170 170 170
8 12 1 170 170 170
9 12 1 170 170 170
10 12 1 170 170 170
11 12 1 170 170 170
12 12 1 170 170 170
13 12 1 170 170 170
14 12 1 170 170 170
15 12 1 170 170 170
16 12 1 170 170 170
17 12 1 170 170 170
18 12 1 170 170 170
1 13 1 170 170 170
2 13 1 170 170 170
3 13 1 170 170 170
4 13 1 170 170 170
5 13 1 170 170 170
6 13 1 170 170 170
7 13 1 170 170 170
8 13 1 170 170 170
9 13 1 170 170 170
10 13 1 170 170 170
11 13 1 170 170 170
12 13 1 170 170 170
13 13 1 170 170 170
14 13 1 170 170 170
15 13 1 170 170 170
16 13 1 170 170 170
17 13 1 170 170 170
18 13 1 170 170 170
1 14 1 170 170 170
2 14 1 170 170 170
3 14 1 170 170 170
4 14 1 170 170 170
5 14 1 170 170 170
6 14 1 170 170 170
7 14 1 170 170 170
8 14 1 170 170 170
9 14 1 170 170 170
10 14 1 170 170 170
11 14 1 170 170 170
12 14 1 170 170 170
13 14 1 170 170 170
14 14 1 170 170 170
15 14 1 170 170 170
16 14 1 170 170 170
17 14 1 170 170 170
18 14 1 170 170 170
2 15 1 170 170 170
3 15 1 170 170 170
4 15 1 170 170 170
5 15 1 170 170 170
6 15 1 170 170 170
7 15 1 170 170 170
8 15 1 170 170 170
9 15 1 170 170 170
10 15 1 170 170 170
11 15 1 170 170 170
12 15 1 170 170 170
13 15 1 170 170 170
14 15 1 170 170 170
15 15 1 170 170 170
16 15 1 170 170 170
17 15 1 170 170 170
3 16 1 170 170 170
4 16 1 170 170 170
5 16 1 170 170 170
6 16 1 170 170 170
7 16 1 170 170 170
8 16 1 170 170 170
9 16 1 170 170 170
10 16 1 170 170 170
11 16 1 170 170 170
12 16 1 170 170 170
13 16 1 170 170 170
14 16 1 170 170 170
15 16 1 170 170 170
16 16 1 170 170 170
4 17 1 170 170 170
5 17 1 170 170 170
6 17 1 170 170 170
7 17 1 170 170 170
8 17 1 170 170 170
9 17 1 170 170 170
10 17 1 170 170 170
11 17 1 170 170 170
12 17 1 170 170 170
13 17 1 170 170 170
14 17 1 170 170 170
15 17 1 170 170 170
5 18 1 170 170 170
6 18 1 170 170 170
7 18 1 170 170 170
8 18 1 170 170 170
9 18 1 170 170 170
10 18 1 170 170 170
11 18 1 170 170 170
12 18 1 170 170 170
13 18 1 170 170 170
14 18 1 170 170 170
5 0 2 170 170 170
6 0 2 170 170 170
7 0 2 170 170 170
8 0 2 170 170 170
9 0 2 170 170 170
10 0 2 170 170 170
11 0 2 170 170 170
12 0 2 170 170 170
13 0 2 170 170 170
14 0 2 170 170 170
4 1 2 170 170 170
5 1 2 170 170 170
6 1 2 170 170 170
7 1 2 170 170 170
8 1 2 170 170 170
9 1 2 170 170 170
10 1 2 170 170 170
11 1 2 170 170 170
12 1 2 170 170 170
13 1 2 170 170 170
14 1 2 170 170 170
15 1 2 170 170 170
3 2 2 170 170 170
4 2 2 170 170 170
5 2 2 170 170 170
6 2 2 170 170 170
7 2 2 170 170 170
8 2 2 170 170 170
9 2 2 170 170 170
10 2 2 170 170 170
11 2 2 170 170 170
12 2 2 170 170 170
13 2 2 170 170 170
14 2 2 170 170 170
15 2 2 170 170 170
16 2 2 170 170 170
2 3 2 170 170 170
3 3 2 170 170 170
4 3 2 170 170 170
5 3 2 170 170 170
6 3 2 170 170 170
7 3 2 170 170 170
8 3 2 170 170 170
9 3 2 170 170 170
10 3 2 170 170 170
11 3 2 170 170 170
12 3 2 170 170 170
13 3 2 170 170 170
14 3 2 170 170 170
15 3 2 170 170 170
16 3 2 170 170 170
17 3 2 170 170 170
1 4 2 170 170 170
2 4 2 170 170 170
3 4 2 170 170 170
4 4 2 170 170 170
5 4 2 170 170 170
6 4 2 170 170 170
7 4 2 170 170 170
8 4 2 170 170 170
9 4 2 170 170 170
10 4 2 170 170 170
11 4 2 170 170 170
12 4 2 170 170 170
13 4 2 170 170 170
14 4 2 170 170 170
15 4 2 170 170 170
16 4 2 170 170 170
17 4 2 170 170 170
18 4 2 170 170 170
0 5 2 170 170 170
1 5 2 170 170 170
2 5 2 170 170 170
3 5 2 170 170 170
4 5 2 170 170 170
5 5 2 170 170 170
6 5 2 170 170 170
7 5 2 170 170 170
8 5 2 170 170 170
9 5 2 170 170 170
10 5 2 170 170 170
11 5 2 170 170 170
12 5 2 170 170 170
13 5 2 170 170 170
14 5 2 170 170 170
15 5 2 170 170 170
16 5 2 170 170 170
17 5 2 170 170 170
18 5 2 170 170 170
19 5 2 170 170 170
0 6 2 170 170 170
1 6 2 170 170 170
2 6 2 170 170 170
3 6 2 170 170 170
4 6 2 170 170 170
5 6 2 170 170 170
6 6 2 170 170 170
7 6 2 170 170 170
8 6 2 170 170 170
9 6 2 170 170 170
10 6 2 170 170 170
11 6 2 170 170 170
12 6 2 170 170 170
13 6 2 170 170 170
14 6 2 170 170 170
15 6 2 170 170 170
16 6 2 170 170 170
17 6 2 170 170 170
18 6 2 170 170 170
19 6 2 170 170 170
0 7 2 170 170 170
1 7 2 170 170 170
2 7 2 170 170 170
3 7 2 170 170 170
4 7 2 170 170 170
5 7 2 170 170 170
6 7 2 170 170 170
7 7 2 170 170 170
8 7 2 170 170 170
9 7 2 170 170 170
10 7 2 170 170 170
11 7 2 170 170 170
12 7 2 170 170 170
13 7 2 170 170 170
14 7 2 170 170 170
15 7 2 170 170 170
16 7 2 170 170 170
17 7 2 170 170 170
18 7 2 170 170 170
19 7 2 170 170 170
0 8 2 170 170 170
1 8 2 170 170 170
2 8 2 170 170 170
3 8 2 170 170 170
4 8 2 170 170 170
5 8 2 170 170 170
6 8 2 170 170 170
7 8 2 170 170 170
8 8 2 170 170 170
9 8 2 170 170 170
10 8 2 170 170 170
11 8 2 170 170 170
12 8 2 170 170 170
13 8 2 170 170 170
14 8 2 170 170 170
15 8 2 170 170 170
16 8 2 170 170 170
17 8 2 170 170 170
18 8 2 170 170 170
19 8 2 170 170 170
0 9 2 170 170 170
1 9 2 170 170 170
2 9 2 170 170 170
3 9 2 170 170 170
4 9 2 170 170 170
5 9 2 170 170 170
6 9 2 170 170 170
7 9 2 170 170 170
8 9 2 170 170 170
9 9 2 170 170 170
10 9 2 170 170 170
11 9 2 170 170 170
12 9 2 170 170 170
13 9 2 170 170 170
14 9 2 170 170 170
15 9 2 170 170 170
16 9 2 170 170 170
17 9 2 170 170 170
18 9 2 170 170 170
19 9 2 170 170 170
0 10 2 170 170 170
1 10 2 170 170 170
2 10 2 170 170 170
3 10 2 170 170 170
4 10 2 170 170 170
5 10 2 170 170 170
6 10 2 170 170 170
7 10 2 170 170 170
8 10 2 170 170 170
9 10 2 170 170 170
10 10 2 170 170 170
11 10 2 170 170 170
12 10 2 170 170 170
13 10 2 170 170 170
14 10 2 170 170 170
15 10 2 170 170 170
16 10 2 170 170 170
17 10 2 170 170 170
18 10 2 170 170 170
19 10 2 170 170 170
0 11 2 170 170 170
1 11 2 170 170 170
2 11 2 170 170 170
3 11 2 170 170 170
4 11 2 170 170 170
5 11 2 170 170 170
6 11 2 170 170 170
7 11 2 170 170 170
8 11 2 170 170 170
9 11 2 170 170 170
10 11 2 170 170 170
11 11 2 170 170 170
12 11 2 170 170 170
13 11 2 170 170 170
14 11 2 170 170 170
15 11 2 170 170 170
16 11 2 170 170 170
17 11 2 170 170 170
18 11 2 170 170 170
19 11 2 170 170 170
0 12 2 170 170 170
1 12 2 170 170 170
2 12 2 170 170 170
3 12 2 170 170 170
4 12 2 170 170 170
5 12 2 170 170 170
6 12 2 170 170 170
7 12 2 170 170 170
8 12 2 170 170 170
9 12 2 170 170 170
10 12 2 170 170 170
11 12 2 170 170 170
12 12 2 170 170 170
13 12 2 170 170 170
14 12 2 170 170 170
15 12 2 170 170 170
16 12 2 170 170 170
17 12 2 170 170 170
18 12 2 170 170 170
19 12 2 170 170 170
0 13 2 170 170 170
1 13 2 170 170 170
2 13 2 170 170 170
3 13 2 170 170 170
4 13 2 170 170 170
5 13 2 170 170 170
6 13 2 170 170 170
7 13 2 170 170 170
8 13 2 170 170 170
9 13 2 170 170 170
10 13 2 170 170 170
11 13 2 170 170 170
12 13 2 170 170 170
13 13 2 170 170 170
14 13 2 170 170 170
15 13 2 170 170 170
16 13 2 170 170 170
17 13 2 170 170 170
18 13 2 170 170 170
19 13 2 170 170 170
0 14 2 170 170 170
1 14 2 170 170 170
2 14 2 170 170 170
3 14 2 170 170 170
4 14 2 170 170 170
5 14 2 170 170 170
6 14 2 170 170 170
7 14 2 170 170 170
8 14 2 170 170 170
9 14 2 170 170 170
10 14 2 170 170 170
11 14 2 170 170 170
12 14 2 170 170 170
13 14 2 170 170 170
14 14 2 170 170 170
15 14 2 170 170 170
16 14 2 170 170 170
17 14 2 170 170 170
18 14 2 170 170 170
19 14 2 170 170 170
1 15 2 170 170 170
2 15 2 170 170 170
3 15 2 170 170 170
4 15 2 170 170 170
5 15 2 170 170 170
6 15 2 170 170 170
7 15 2 170 170 170
8 15 2 170 170 170
9 15 2 170 170 170
10 15 2 170 170 170
11 15 2 170 170 170
12 15 2 170 170 170
13 15 2 170 170 170
14 15 2 170 170 170
15 15 2 170 170 170
16 15 2 170 170 170
17 15 2 170 170 170
18 15 2 170 170 170
2 16 2 170 170 170
3 16 2 170 170 170
4 16 2 170 170 170
5 16 2 170 170 170
6 16 2 170 170 170
7 16 2 170 170 170
8 16 2 170 170 170
9 16 2 170 170 170
10 16 2 170 170 170
11 16 2 170 170 170
12 16 2 170 170 170
13 16 2 170 170 170
14 16 2 170 170 170
15 16 2 170 170 170
16 16 2 170 170 170
17 16 2 170 170 170
3 17 2 170 170 170
4 17 2 170 170 170
5 17 2 170 170 170
6 17 2 170 170 170
7 17 2 170 170 170
8 17 2 170 170 170
9 17 2 170 170 170
10 17 2 170 170 170
11 17 2 170 170 170
12 17 2 170 170 170
13 17 2 170 170 170
14 17 2 170 170 170
15 17 2 170 170 170
16 17 2 170 170 170
4 18 2 170 170 170
5 18 2 170 170 170
6 18 2 170 170 170
7 18 2 170 170 170
8 18 2 170 170 170
9 18 2 170 170 170
10 18 2 170 170 170
11 18 2 170 170 170
12 18 2 170 170 170
13 18 2 170 170 170
14 18 2 170 170 170
15 18 2 170 170 170
5 19 2 170 170 170
6 19 2 170 170 170
7 19 2 170 170 170
8 19 2 170 170 170
9 19 2 170 170 170
10 19 2 170 170 170
11 19 2 170 170 170
12 19 2 170 170 170
13 19 2 170 170 170
14 19 2 170 170 170
4 0 3 170 170 170
5 0 3 170 170 170
6 0 3 170 170 170
7 0 3 170 170 170
8 0 3 170 170 170
9 0 3 170 170 170
10 0 3 170 170 170
11 0 3 170 170 170
12 0 3 170 170 170
13 0 3 170 170 170
14 0 3 170 170 170
15 0 3 170 170 170
3 1 3 170 170 170
4 1 3 170 170 170
5 1 3 170 170 170
6 1 3 170 170 170
7 1 3 170 170 170
8 1 3 170 170 170
9 1 3 170 170 170
10 1 3 170 170 170
11 1 3 170 170 170
12 1 3 170 170 170
13 1 3 170 170 170
14 1 3 170 170 170
15 1 3 170 170 170
16 1 3 170 170 170
2 2 3 170 170 170
3 2 3 170 170 170
4 2 3 170 170 170
5 2 3 170 170 170
6 2 3 170 170 170
7 2 3 170 170 170
8 2 3 170 170 170
9 2 3 170 170 170
10 2 3 170 170 170
11 2 3 170 170 170
12 2 3 170 170 170
13 2 3 170 170 170
14 2 3 170 170 170
15 2 3 170 170 170
16 2 3 170 170 170
17 2 3 170 170 170
1 3 3 170 170 170
2 3 3 170 170 170
3 3 3 170 170 170
4 3 3 170 170 170
5 3 3 170 170 170
6 3 3 170 170 170
7 3 3 170 170 170
8 3 3 170 170 170
9 3 3 170 170 170
10 3 3 170 170 170
11 3 3 170 170 170
12 3 3 170 170 170
13 3 3 170 170 170
14 3 3 170 170 170
15 3 3 170 170 170
16 3 3 170 170 170
17 3 3 170 170 170
18 3 3 170 170 170
0 4 3 170 170 170
1 4 3 170 170 170
2 4 3 170 170 170
3 4 3 170 170 170
4 4 3 170 170 170
5 4 3 170 170 170
6 4 3 170 170 170
7 4 3 170 170 170
8 4 3 170 170 170
9 4 3 170 170 170
10 4 3 170 170 170
11 4 3 170 170 170
12 4 3 170 170 170
13 4 3 170 170 170
14 4 3 170 170 170
15 4 3 170 170 170
16 4 3 170 170 170
17 4 3 170 170 170
18 4 3 170 170 170
19 4 3 170 170 170
0 5 3 170 170 170
1 5 3 170 170 170
2 5 3 170 170 170
3 5 3 170 170 170
4 5 3 170 170 170
5 5 3 170 170 170
6 5 3 170 170 170
7 5 3 170 170 170
8 5 3 170 170 170
9 5 3 170 170 170
10 5 3 170 170 170
11 5 3 170 170 170
12 5 3 170 170 170
13 5 3 170 170 170
14 5 3 170 170 170
15 5 3 170 170 170
16 5 3 170 170 170
17 5 3 170 170 170
18 5 3 170 170 170
19 5 3 170 170 170
0 6 3 170 170 170
1 6 3 170 170 170
2 6 3 170 170 170
3 6 3 170 170 170
4 6 3 170 170 170
5 6 3 170 170 170
6 6 3 170 170 170
7 6 3 170 170 170
8 6 3 170 170 170
9 6 3 170 170 170
10 6 3 170 170 170
11 6 3 170 170 170
12 6 3 170 170 170
13 6 3 170 170 170
14 6 3 170 170 170
15 6 3 170 170 170
16 6 3 170 170 170
17 6 3 170 170 170
18 6 3 170 170 170
19 6 3 170 170 170
0 7 3 170 170 170
1 7 3 170 170 170
2 7 3 170 170 170
3 7 3 170 170 170
4 7 3 170 170 170
5 7 3 170 170 170
6 7 3 170 170 170
7 7 3 170 170 170
8 7 3 170 170 170
9 7 3 170 170 170
10 7 3 170 170 170
11 7 3 170 170 170
12 7 3 170 170 170
13 7 3 170 170 170
14 7 3 170 170 170
15 7 3 170 170 170
16 7 3 170 170 170
17 7 3 170 170 170
18 7 3 170 170 170
19 7 3 170 170 170
0 8 3 170 170 170
1 8 3 170 170 170
2 8 3 170 170 170
3 8 3 170 170 170
4 8 3 170 170 170
5 8 3 170 170 170
6 8 3 170 170 170
7 8 3 170 170 170
8 8 3 170 170 170
9 8 3 170 170 170
10 8 3 170 170 170
11 8 3 170 170 170
12 8 3 170 170 170
13 8 3 170 170 170
14 8 3 170 170 170
15 8 3 170 170 170
16 8 3 170 170 170
17 8 3 170 170 170
18 8 3 170 170 170
19 8 3 170 170 170
0 9 3 170 170 170
1 9 3 170 170 170
2 9 3 170 170 170
3 9 3 170 170 170
4 9 3 170 170 170
5 9 3 170 170 170
6 9 3 170 170 170
7 9 3 170 170 170
8 9 3 170 170 170
9 9 3 170 170 170
10 9 3 170 170 170
11 9 3 170 170 170
12 9 3 170 170 170
13 9 3 170 170 170
14 9 3 170 170 170
15 9 3 170 170 170
16 9 3 170 170 170
17 9 3 170 170 170
18 9 3 170 170 170
19 9 3 170 170 170
0 10 3 170 170 170
1 10 3 170 170 170
2 10 3 170 170 170
3 10 3 170 170 170
4 10 3 170 170 170
5 10 3 170 170 170
6 10 3 170 170 170
7 10 3 170 170 170
8 10 3 170 170 170
9 10 3 170 170 170
10 10 3 170 170 170
11 10 3 170 170 170
12 10 3 170 170 170
13 10 3 170 170 170
14 10 3 170 170 170
15 10 3 170 170 170
16 10 3 170 170 170
17 10 3 170 170 170
18 10 3 170 170 170
19 10 3 170 170 170
0 11 3 170 170 170
1 11 3 170 170 170
2 11 3 170 170 170
3 11 3 170 170 170
4 11 3 170 170 170
5 11 3 170 170 170
6 11 3 170 170 170
7 11 3 170 170 170
8 11 3 170 170 170
9 11 3 170 170 170
10 11 3 170 170 170
11 11 3 170 170 170
12 11 3 170 170 170
13 11 3 170 170 170
14 11 3 170 170 170
15 11 3 170 170 170
16 11 3 170 170 170
17 11 3 170 170 170
18 11 3 170 170 170
19 11 3 170 170 170
0 12 3 170 170 170
1 12 3 170 170 170
2 12 3 170 170 170
3 12 3 170 170 170
4 12 3 170 170 170
5 12 3 170 170 170
6 12 3 170 170 170
7 12 3 170 170 170
8 12 3 170 170 170
9 12 3 170 170 170
10 12 3 170 170 170
11 12 3 170 170 170
12 12 3 170 170 170
13 12 3 170 170 170
14 12 3 170 170 170
15 12 3 170 170 170
16 12 3 170 170 170
17 12 3 170 170 170
18 12 3 170 170 170
19 12 3 170 170 170
0 13 3 170 170 170
1 13 3 170 170 170
2 13 3 170 170 170
3 13 3 170 170 170
4 13 3 170 170 170
5 13 3 170 170 170
6 13 3 170 170 170
7 13 3 170 170 170
8 13 3 170 170 170
9 13 3 170 170 170
10 13 3 170 170 170
11 13 3 170 170 170
12 13 3 170 170 170
13 13 3 170 170 170
14 13 3 170 170 170
15 13 3 170 170 170
16 13 3 170 170 170
17 13 3 170 170 170
18 13 3 170 170 170
19 13 3 170 170 170
0 14 3 170 170 170
1 14 3 170 170 170
2 14 3 170 170 170
3 14 3 170 170 170
4 14 3 170 170 170
5 14 3 170 170 170
6 14 3 170 170 170
7 14 3 170 170 170
8 14 3 170 170 170
9 14 3 170 170 170
10 14 3 170 170 170
11 14 3 170 170 170
12 14 3 170 170 170
13 14 3 170 170 170
14 14 3 170 170 170
15 14 3 170 170 170
16 14 3 170 170 170
17 14 3 170 170 170
18 14 3 170 170 170
19 14 3 170 170 170
0 15 3 170 170 170
1 15 3 170 170 170
2 15 3 170 170 170
3 15 3 170 170 170
4 15 3 170 170 170
5 15 3 170 170 170
6 15 3 170 170 170
7 15 3 170 170 170
8 15 3 170 170 170
9 15 3 170 170 170
10 15 3 170 170 170
11 15 3 170 170 170
12 15 3 170 170 170
13 15 3 170 170 170
14 15 3 170 170 170
15 15 3 170 170 170
16 15 3 170 170 170
17 15 3 170 170 170
18 15 3 170 170 170
19 15 3 170 170 170
1 16 3 170 170 170
2 16 3 170 170 170
3 16 3 170 170 170
4 16 3 170 170 170
5 16 3 170 170 170
6 16 3 170 170 170
7 16 3 170 170 170
8 16 3 170 170 170
9 16 3 170 170 170
10 16 3 170 170 170
11 16 3 170 170 170
12 16 3 170 170 170
13 16 3 170 170 170
14 16 3 170 170 170
15 16 3 170 170 170
16 16 3 170 170 170
17 16 3 170 170 170
18 16 3 170 170 170
2 17 3 170 170 170
3 17 3 170 170 170
4 17 3 170 170 170
5 17 3 170 170 170
6 17 3 170 170 170
7 17 3 170 170 170
8 17 3 170 170 170
9 17 3 170 170 170
10 17 3 170 170 170
11 17 3 170 170 170
12 17 3 170 170 170
13 17 3 170 170 170
14 17 3 170 170 170
15 17 3 170 170 170
16 17 3 170 170 170
17 17 3 170 170 170
3 18 3 170 170 170
4 18 3 170 170 170
5 18 3 170 170 170
6 18 3 170 170 170
7 18 3 170 170 170
8 18 3 170 170 170
9 18 3 170 170 170
10 18 3 170 170 170
11 18 3 170 170 170
12 18 3 170 170 170
13 18 3 170 170 170
14 18 3 170 170 170
15 18 3 170 170 170
16 18 3 170 170 170
4 19 3 170 170 170
5 19 3 170 170 170
6 19 3 170 170 170
7 19 3 170 170 170
8 19 3 170 170 170
9 19 3 170 170 170
10 19 3 170 170 170
11 19 3 170 170 170
12 19 3 170 170 170
13 19 3 170 170 170
14 19 3 170 170 170
15 19 3 170 170 170
3 0 4 170 170 170
4 0 4 170 170 170
5 0 4 170 170 170
6 0 4 170 170 170
7 0 4 170 170 170
8 0 4 170 170 170
9 0 4 170 170 170
10 0 4 170 170 170
11 0 4 170 170 170
12 0 4 170 170 170
13 0 4 170 170 170
14 0 4 170 170 170
15 0 4 170 170 170
16 0 4 170 170 170
2 1 4 170 170 170
3 1 4 170 170 170
4 1 4 170 170 170
5 1 4 170 170 170
6 1 4 170 170 170
7 1 4 170 170 170
8 1 4 170 170 170
9 1 4 170 170 170
10 1 4 170 170 170
11 1 4 170 170 170
12 1 4 170 170 170
13 1 4 170 170 170
14 1 4 170 170 170
15 1 4 170 170 170
16 1 4 170 170 170
17 1 4 170 170 170
1 2 4 170 170 170
2 2 4 170 170 170
3 2 4 170 170 170
4 2 4 170 170 170
5 2 4 170 170 170
6 2 4 170 170 170
7 2 4 170 170 170
8 2 4 170 170 170
9 2 4 170 170 170
10 2 4 170 170 170
11 2 4 170 170 170
12 2 4 170 170 170
13 2 4 170 170 170
14 2 4 170 170 170
15 2 4 170 170 170
16 2 4 170 170 170
17 2 4 170 170 170
18 2 4 170 170 170
0 3 4 170 170 170
1 3 4 170 170 170
2 3 4 170 170 170
3 3 4 170 170 170
4 3 4 170 170 170
5 3 4 170 170 170
6 3 4 170 170 170
7 3 4 170 170 170
8 3 4 170 170 170
9 3 4 170 170 170
10 3 4 170 170 170
11 3 4 170 170 170
12 3 4 170 170 170
13 3 4 170 170 170
14 3 4 170 170 170
15 3 4 170 170 170
16 3 4 170 170 170
17 3 4 170 170 170
18 3 4 170 170 170
19 3 4 170 170 170
0 4 4 170 170 170
1 4 4 170 170 170
2 4 4 170 170 170
3 4 4 170 170 170
4 4 4 170 170 170
5 4 4 170 170 170
6 4 4 170 170 170
7 4 4 170 170 170
8 4 4 170 170 170
9 4 4 170 170 170
10 4 4 170 170 170
11 4 4 170 170 170
12 4 4 170 170 170
13 4 4 170 170 170
14 4 4 170 170 170
15 4 4 170 170 170
16 4 4 170 170 170
17 4 4 170 170 170
18 4 4 170 170 170
19 4 4 170 170 170
0 5 4 170 170 170
1 5 4 170 170 170
2 5 4 170 170 170
3 5 4 170 170 170
4 5 4 170 170 170
5 5 4 170 170 170
6 5 4 170 170 170
7 5 4 170 170 170
8 5 4 170 170 170
9 5 4 170 170 170
10 5 4 170 170 170
11 5 4 170 170 170
12 5 4 170 170 170
13 5 4 170 170 170
14 5 4 170 170 170
15 5 4 170 170 170
16 5 4 170 170 170
17 5 4 170 170 170
18 5 4 170 170 170
19 5 4 170 170 170
0 6 4 170 170 170
1 6 4 170 170 170
2 6 4 170 170 170
3 6 4 170 170 170
4 6 4 170 170 170
5 6 4 170 170 170
6 6 4 170 170 170
7 6 4 170 170 170
8 6 4 170 170 170
9 6 4 170 170 170
10 6 4 170 170 170
11 6 4 170 170 170
12 6 4 170 170 170
13 6 4 170 170 170
14 6 4 170 170 170
15 6 4 170 170 170
16 6 4 170 170 170
17 6 4 170 170 170
18 6 4 170 170 170
19 6 4 170 170 170
0 7 4 170 170 170
1 7 4 170 170 170
2 7 4 170 170 170
3 7 4 170 170 170
4 7 4 170 170 170
5 7 4 170 170 170
6 7 4 170 170 170
7 7 4 170 170 170
8 7 4 170 170 170
9 7 4 170 170 170
10 7 4 170 170 170
11 7 4 170 170 170
12 7 4 170 170 170
13 7 4 170 170 170
14 7 4 170 170 170
15 7 4 170 170 170
16 7 4 170 170 170
17 7 4 170 170 170
18 7 4 170 170 170
19 7 4 170 170 170
0 8 4 170 170 170
1 8 4 170 170 170
2 8 4 170 170 170
3 8 4 170 170 170
4 8 4 170 170 170
5 8 4 170 170 170
6 8 4 170 170 170
7 8 4 170 170 170
12 8 4 170 170 170
13 8 4 170 170 170
14 8 4 170 170 170
15 8 4 170 170 170
16 8 4 170 170 170
17 8 4 170 170 170
18 8 4 170 170 170
19 8 4 170 170 170
0 9 4 170 170 170
1 9 4 170 170 170
2 9 4 170 170 170
3 9 4 170 170 170
4 9 4 170 170 170
5 9 4 170 170 170
6 9 4 170 170 170
7 9 4 170 170 170
12 9 4 170 170 170
13 9 4 170 170 170
14 9 4 170 170 170
15 9 4 170 170 170
16 9 4 170 170 170
17 9 4 170 170 170
18 9 4 170 170 170
19 9 4 170 170 170
0 10 4 170 170 170
1 10 4 170 170 170
2 10 4 170 170 170
3 10 4 170 170 170
4 10 4 170 170 170
5 10 4 170 170 170
6 10 4 170 170 170
7 10 4 170 170 170
12 10 4 170 170 170
13 10 4 170 170 170
14 10 4 170 170 170
15 10 4 170 170 170
16 10 4 170 170 170
17 10 4 170 170 170
18 10 4 170 170 170
19 10 4 170 170 170
0 11 4 170 170 170
1 11 4 170 170 170
2 11 4 170 170 170
3 11 4 170 170 170
4 11 4 170 170 170
5 11 4 170 170 170
6 11 4 170 170 170
7 11 4 170 170 170
12 11 4 170 170 170
13 11 4 170 170 170
14 11 4 170 170 170
15 11 4 170 170 170
16 11 4 170 170 170
17 11 4 170 170 170
18 11 4 170 170 170
19 11 4 170 170 170
0 12 4 170 170 170
1 12 4 170 170 170
2 12 4 170 170 170
3 12 4 170 170 170
4 12 4 170 170 170
5 12 4 170 170 170
6 12 4 170 170 170
7 12 4 170 170 170
8 12 4 170 170 170
9 12 4 170 170 170
10 12 4 170 170 170
11 12 4 170 170 170
12 12 4 170 170 170
13 12 4 170 170 170
14 12 4 170 170 170
15 12 4 170 170 170
16 12 4 170 170 170
17 12 4 170 170 170
18 12 4 170 170 170
19 12 4 170 170 170
0 13 4 170 170 170
1 13 4 170 170 170
2 13 4 170 170 170
3 13 4 170 170 170
4 13 4 170 170 170
5 13 4 170 170 170
6 13 4 170 170 170
7 13 4 170 170 170
8 13 4 170 170 170
9 13 4 170 170 170
10 13 4 170 170 170
11 13 4 170 170 170
12 13 4 170 170 170
13 13 4 170 170 170
14 13 4 170 170 170
15 13 4 170 170 170
16 13 4 170 170 170
17 13 4 170 170 170
18 13 4 170 170 170
19 13 4 170 170 170
0 14 4 170 170 170
1 14 4 170 170 170
2 14 4 170 170 170
3 14 4 170 170 170
4 14 4 170 170 170
5 14 4 170 170 170
6 14 4 170 170 170
7 14 4 170 170 170
8 14 4 170 170 170
9 14 4 170 170 170
10 14 4 170 170 170
11 14 4 170 170 170
12 14 4 170 170 170
13 14 4 170 170 170
14 14 4 170 170 170
15 14 4 170 170 170
16 14 4 170 170 170
17 14 4 170 170 170
18 14 4 170 170 170
19 14 4 170 170 170
0 15 4 170 170 170
1 15 4 170 170 170
2 15 4 170 170 170
3 15 4 170 170 170
4 15 4 170 170 170
5 15 4 170 170 170
6 15 4 170 170 170
7 15 4 170 170 170
8 15 4 170 170 170
9 15 4 170 170 170
10 15 4 170 170 170
11 15 4 170 170 170
12 15 4 170 170 170
13 15 4 170 170 170
14 15 4 170 170 170
15 15 4 170 170 170
16 15 4 170 170 170
17 15 4 170 170 170
18 15 4 170 170 170
19 15 4 170 170 170
0 16 4 170 170 170
1 16 4 170 170 170
2 16 4 170 170 170
3 16 4 170 170 170
4 16 4 170 170 170
5 16 4 170 170 170
6 16 4 170 170 170
7 16 4 170 170 170
8 16 4 170 170 170
9 16 4 170 170 170
10 16 4 170 170 170
11 16 4 170 170 170
12 16 4 170 170 170
13 16 4 170 170 170
14 16 4 170 170 170
15 16 4 170 170 170
16 16 4 170 170 170
17 16 4 170 170 170
18 16 4 170 170 170
19 16 4 170 170 170
1 17 4 170 170 170
2 17 4 170 170 170
3 17 4 170 170 170
4 17 4 170 170 170
5 17 4 170 170 170
6 17 4 170 170 170
7 17 4 170 170 170
8 17 4 170 170 170
9 17 4 170 170 170
10 17 4 170 170 170
11 17 4 170 170 170
12 17 4 170 170 170
13 17 4 170 170 170
14 17 4 170 170 170
15 17 4 170 170 170
16 17 4 170 170 170
17 17 4 170 170 170
18 17 4 170 170 170
2 18 4 170 170 170
3 18 4 170 170 170
4 18 4 170 170 170
5 18 4 170 170 170
6 18 4 170 170 170
7 18 4 170 170 170
8 18 4 170 170 170
9 18 4 170 170 170
10 18 4 170 170 170
11 18 4 170 170 170
12 18 4 170 170 170
13 18 4 170 170 170
14 18 4 170 170 170
15 18 4 170 170 170
16 18 4 170 170 170
17 18 4 170 170 170
3 19 4 170 170 170
4 19 4 170 170 170
5 19 4 170 170 170
6 19 4 170 170 170
7 19 4 170 170 170
8 19 4 170 170 170
9 19 4 170 170 170
10 19 4 170 170 170
11 19 4 170 170 170
12 19 4 170 170 170
13 19 4 170 170 170
14 19 4 170 170 170
15 19 4 170 170 170
16 19 4 170 170 170
2 0 5 170 170 170
3 0 5 170 170 170
4 0 5 170 170 170
5 0 5 170 170 170
6 0 5 170 170 170
7 0 5 170 170 170
8 0 5 170 170 170
9 0 5 170 170 170
10 0 5 170 170 170
11 0 5 170 170 170
12 0 5 170 170 170
13 0 5 170 170 170
14 0 5 170 170 170
15 0 5 170 170 170
16 0 5 170 170 170
17 0 5 170 170 170
1 1 5 170 170 170
2 1 5 170 170 170
3 1 5 170 170 170
4 1 5 170 170 170
5 1 5 170 170 170
6 1 5 170 170 170
7 1 5 170 170 170
8 1 5 170 170 170
9 1 5 170 170 170
10 1 5 170 170 170
11 1 5 170 170 170
12 1 5 170 170 170
13 1 5 170 170 170
14 1 5 170 170 170
15 1 5 170 170 170
16 1 5 170 170 170
17 1 5 170 170 170
18 1 5 170 170 170
0 2 5 170 170 170
1 2 5 170 170 170
2 2 5 170 170 170
3 2 5 170 170 170
4 2 5 170 170 170
5 2 5 170 170 170
6 2 5 170 170 170
7 2 5 170 170 170
8 2 5 170 170 170
9 2 5 170 170 170
10 2 5 170 170 170
11 2 5 170 170 170
12 2 5 170 170 170
13 2 5 170 170 170
14 2 5 170 170 170
15 2 5 170 170 170
16 2 5 170 170 170
17 2 5 170 170 170
18 2 5 170 170 170
19 2 5 170 170 170
0 3 5 170 170 170
1 3 5 170 170 170
2 3 5 170 170 170
3 3 5 170 170 170
4 3 5 170 170 170
5 3 5 170 170 170
6 3 5 170 170 170
7 3 5 170 170 170
8 3 5 170 170 170
9 3 5 170 170 170
10 3 5 170 170 170
11 3 5 170 170 170
12 3 5 170 170 170
13 3 5 170 170 170
14 3 5 170 170 170
15 3 5 170 170 170
16 3 5 170 170 170
17 3 5 170 170 170
18 3 5 170 170 170
19 3 5 170 170 170
0 4 5 170 170 170
1 4 5 170 170 170
2 4 5 170 170 170
3 4 5 170 170 170
4 4 5 170 170 170
5 4 5 170 170 170
6 4 5 170 170 170
7 4 5 170 170 170
8 4 5 170 170 170
9 4 5 170 170 170
10 4 5 170 170 170
11 4 5 170 170 170
12 4 5 170 170 170
13 4 5 170 170 170
14 4 5 170 170 170
15 4 5 170 170 170
16 4 5 170 170 170
17 4 5 170 170 170
18 4 5 170 170 170
19 4 5 170 170 170
0 5 5 170 170 170
1 5 5 170 170 170
2 5 5 170 170 170
3 5 5 170 170 170
4 5 5 170 170 170
5 5 5 170 170 170
6 5 5 170 170 170
7 5 5 170 170 170
8 5 5 170 170 170
9 5 5 170 170 170
10 5 5 170 170 170
11 5 5 170 170 170
12 5 5 170 170 170
13 5 5 170 170 170
14 5 5 170 170 170
15 5 5 170 170 170
16 5 5 170 170 170
17 5 5 170 170 170
18 5 5 170 170 170
19 5 5 170 170 170
0 6 5 170 170 170
1 6 5 170 170 170
2 6 5 170 170 170
3 6 5 170 170 170
4 6 5 170 170 170
5 6 5 170 170 170
6 6 5 170 170 170
7 6 5 170 170 170
8 6 5 170 170 170
9 6 5 170 170 170
10 6 5 170 170 170
11 6 5 170 170 170
12 6 5 170 170 170
13 6 5 170 170 170
14 6 5 170 170 170
15 6 5 170 170 170
16 6 5 170 170 170
17 6 5 170 170 170
18 6 5 170 170 170
19 6 5 170 170 170
0 7 5 170 170 170
1 7 5 170 170 170
2 7 5 170 170 170
3 7 5 170 170 170
4 7 5 170 170 170
5 7 5 170 170 170
6 7 5 170 170 170
13 7 5 170 170 170
14 7 5 170 170 170
15 7 5 170 170 170
16 7 5 170 170 170
17 7 5 170 170 170
18 7 5 170 170 170
19 7 5 170 170 170
0 8 5 170 170 170
1 8 5 170 170 170
2 8 5 170 170 170
3 8 5 170 170 170
4 8 5 170 170 170
5 8 5 170 170 170
6 8 5 170 170 170
13 8 5 170 170 170
14 8 5 170 170 170
15 8 5 170 170 170
16 8 5 170 170 170
17 8 5 170 170 170
18 8 5 170 170 170
19 8 5 170 170 170
0 9 5 170 170 170
1 9 5 170 170 170
2 9 5 170 170 170
3 9 5 170 170 170
4 9 5 170 170 170
5 9 5 170 170 170
6 9 5 170 170 170
13 9 5 170 170 170
14 9 5 170 170 170
15 9 5 170 170 170
16 9 5 170 170 170
17 9 5 170 170 170
18 9 5 170 170 170
19 9 5 170 170 170
0 10 5 170 170 170
1 10 5 170 170 170
2 10 5 170 170 170
3 10 5 170 170 170
4 10 5 170 170 170
5 10 5 170 170 170
6 10 5 170 170 170
13 10 5 170 170 170
14 10 5 170 170 170
15 10 5 170 170 170
16 10 5 170 170 170
17 10 5 170 170 170
18 10 5 170 170 170
19 10 5 170 170 170
0 11 5 170 170 170
1 11 5 170 170 170
2 11 5 170 170 170
3 11 5 170 170 170
4 11 5 170 170 170
5 11 5 170 170 170
6 11 5 170 170 170
13 11 5 170 170 170
14 11 5 170 170 170
15 11 5 170 170 170
16 11 5 170 170 170
17 11 5 170 170 170
18 11 5 170 170 170
19 11 5 170 170 170
0 12 5 170 170 170
1 12 5 170 170 170
2 12 5 170 170 170
3 12 5 170 170 170
4 12 5 170 170 170
5 12 5 170 170 170
6 12 5 170 170 170
13 12 5 170 170 170
14 12 5 170 170 170
15 12 5 170 170 170
16 12 5 170 170 170
17 12 5 170 170 170
18 12 5 170 170 170
19 12 5 170 170 170
0 13 5 170 170 170
1 13 5 170 170 170
2 13 5 170 170 170
3 13 5 170 170 170
4 13 5 170 170 170
5 13 5 170 170 170
6 13 5 170 170 170
7 13 5 170 170 170
8 13 5 170 170 170
9 13 5 170 170 170
10 13 5 170 170 170
11 13 5 170 170 170
12 13 5 170 170 170
13 13 5 170 170 170
14 13 5 170 170 170
15 13 5 170 170 170
16 13 5 170 170 170
17 13 5 170 170 170
18 13 5 170 170 170
19 13 5 170 170 170
0 14 5 170 170 170
1 14 5 170 170 170
2 14 5 170 170 170
3 14 5 170 170 170
4 14 5 170 170 170
5 14 5 170 170 170
6 14 5 170 170 170
7 14 5 170 170 170
8 14 5 170 170 170
9 14 5 170 170 170
10 14 5 170 170 170
11 14 5 170 170 170
12 14 5 170 170 170
13 14 5 170 170 170
14 14 5 170 170 170
15 14 5 170 170 170
16 14 5 170 170 170
17 14 5 170 170 170
18 14 5 170 170 170
19 14 5 170 170 170
0 15 5 170 170 170
1 15 5 170 170 170
2 15 5 170 170 170
3 15 5 170 170 170
4 15 5 170 170 170
5 15 5 170 170 170
6 15 5 170 170 170
7 15 5 170 170 170
8 15 5 170 170 170
9 15 5 170 170 170
10 15 5 170 170 170
11 15 5 170 170 170
12 15 5 170 170 170
13 15 5 170 170 170
14 15 5 170 170 170
15 15 5 170 170 170
16 15 5 170 170 170
17 15 5 170 170 170
18 15 5 170 170 170
19 15 5 170 170 170
0 16 5 170 170 170
1 16 5 170 170 170
2 16 5 170 170 170
3 16 5 170 170 170
4 16 5 170 170 170
5 16 5 170 170 170
6 16 5 170 170 170
7 16 5 170 170 170
8 16 5 170 170 170
9 16 5 170 170 170
10 16 5 170 170 170
11 16 5 170 170 170
12 16 5 170 170 170
13 16 5 170 170 170
14 16 5 170 170 170
15 16 5 170 170 170
16 16 5 170 170 170
17 16 5 170 170 170
18 16 5 170 170 170
19 16 5 170 170 170
0 17 5 170 170 170
1 17 5 170 170 170
2 17 5 170 170 170
3 17 5 170 170 170
4 17 5 170 170 170
5 17 5 170 170 170
6 17 5 170 170 170
7 17 5 170 170 170
8 17 5 170 170 170
9 17 5 170 170 170
10 17 5 170 170 170
11 17 5 170 170 170
12 17 5 170 170 170
13 17 5 170 170 170
14 17 5 170 170 170
15 17 5 170 170 170
16 17 5 170 170 170
17 17 5 170 170 170
18 17 5 170 170 170
19 17 5 170 170 170
1 18 5 170 170 170
2 18 5 170 170 170
3 18 5 170 170 170
4 18 5 170 170 170
5 18 5 170 170 170
6 18 5 170 170 170
7 18 5 170 170 170
8 18 5 170 170 170
9 18 5 170 170 170
10 18 5 170 170 170
11 18 5 170 170 170
12 18 5 170 170 170
13 18 5 170 170 170
14 18 5 170 170 170
15 18 5 170 170 170
16 18 5 170 170 170
17 18 5 170 170 170
18 18 5 170 170 170
2 19 5 170 170 170
3 19 5 170 170 170
4 19 5 170 170 170
5 19 5 170 170 170
6 19 5 170 170 170
7 19 5 170 170 170
8 19 5 170 170 170
9 19 5 170 170 170
10 19 5 170 170 170
11 19 5 170 170 170
12 19 5 170 170 170
13 19 5 170 170 170
14 19 5 170 170 170
15 19 5 170 170 170
16 19 5 170 170 170
17 19 5 170 170 170
