ply
format ascii 1.0
comment : MagicaVoxel @ Ephtracy
element vertex 1636
property float x
property float y
property float z
property uchar red
property uchar green
property uchar blue
end_header
4 0 0 170 170 170
5 0 0 170 170 170
6 0 0 170 170 170
7 0 0 170 170 170
8 0 0 170 170 170
9 0 0 170 170 170
10 0 0 170 170 170
11 0 0 170 170 170
12 0 0 170 170 170
13 0 0 170 170 170
14 0 0 170 170 170
15 0 0 170 170 170
16 0 0 170 170 170
17 0 0 170 170 170
18 0 0 170 170 170
19 0 0 170 170 170
20 0 0 170 170 170
21 0 0 170 170 170
22 0 0 170 170 170
23 0 0 170 170 170
24 0 0 170 170 170
25 0 0 170 170 170
3 1 0 170 170 170
4 1 0 170 170 170
5 1 0 170 170 170
6 1 0 170 170 170
7 1 0 170 170 170
8 1 0 170 170 170
9 1 0 170 170 170
10 1 0 170 170 170
11 1 0 170 170 170
12 1 0 170 170 170
13 1 0 170 170 170
14 1 0 170 170 170
15 1 0 170 170 170
16 1 0 170 170 170
17 1 0 170 170 170
18 1 0 170 170 170
19 1 0 170 170 170
20 1 0 170 170 170
21 1 0 170 170 170
22 1 0 170 170 170
23 1 0 170 170 170
24 1 0 170 170 170
25 1 0 170 170 170
26 1 0 170 170 170
2 2 0 170 170 170
3 2 0 170 170 170
4 2 0 170 170 170
5 2 0 170 170 170
6 2 0 170 170 170
7 2 0 170 170 170
8 2 0 170 170 170
9 2 0 170 170 170
10 2 0 170 170 170
11 2 0 170 170 170
12 2 0 170 170 170
13 2 0 170 170 170
14 2 0 170 170 170
15 2 0 170 170 170
16 2 0 170 170 170
17 2 0 170 170 170
18 2 0 170 170 170
19 2 0 170 170 170
20 2 0 170 170 170
21 2 0 170 170 170
22 2 0 170 170 170
23 2 0 170 170 170
24 2 0 170 170 170
25 2 0 170 170 170
26 2 0 170 170 170
27 2 0 170 170 170
1 3 0 170 170 170
2 3 0 170 170 170
3 3 0 170 170 170
4 3 0 170 170 170
5 3 0 170 170 170
6 3 0 170 170 170
7 3 0 170 170 170
8 3 0 170 170 170
9 3 0 170 170 170
10 3 0 170 170 170
11 3 0 170 170 170
12 3 0 170 170 170
13 3 0 170 170 170
14 3 0 170 170 170
15 3 0 170 170 170
16 3 0 170 170 170
17 3 0 170 170 170
18 3 0 170 170 170
19 3 0 170 170 170
20 3 0 170 170 170
21 3 0 170 170 170
22 3 0 170 170 170
23 3 0 170 170 170
24 3 0 170 170 170
25 3 0 170 170 170
26 3 0 170 170 170
27 3 0 170 170 170
28 3 0 170 170 170
0 4 0 170 170 170
1 4 0 170 170 170
2 4 0 170 170 170
3 4 0 170 170 170
4 4 0 170 170 170
5 4 0 170 170 170
6 4 0 170 170 170
7 4 0 170 170 170
8 4 0 170 170 170
9 4 0 170 170 170
10 4 0 170 170 170
11 4 0 170 170 170
12 4 0 170 170 170
13 4 0 170 170 170
14 4 0 170 170 170
15 4 0 170 170 170
16 4 0 170 170 170
17 4 0 170 170 170
18 4 0 170 170 170
19 4 0 170 170 170
20 4 0 170 170 170
21 4 0 170 170 170
22 4 0 170 170 170
23 4 0 170 170 170
24 4 0 170 170 170
25 4 0 170 170 170
26 4 0 170 170 170
27 4 0 170 170 170
28 4 0 170 170 170
29 4 0 170 170 170
0 5 0 170 170 170
1 5 0 170 170 170
2 5 0 170 170 170
3 5 0 170 170 170
4 5 0 170 170 170
5 5 0 170 170 170
6 5 0 170 170 170
7 5 0 170 170 170
8 5 0 170 170 170
9 5 0 170 170 170
10 5 0 170 170 170
11 5 0 170 170 170
12 5 0 170 170 170
13 5 0 170 170 170
14 5 0 170 170 170
15 5 0 170 170 170
16 5 0 170 170 170
17 5 0 170 170 170
18 5 0 170 170 170
19 5 0 170 170 170
20 5 0 170 170 170
21 5 0 170 170 170
22 5 0 170 170 170
23 5 0 170 170 170
24 5 0 170 170 170
25 5 0 170 170 170
26 5 0 170 170 170
27 5 0 170 170 170
28 5 0 170 170 170
29 5 0 170 170 170
0 6 0 170 170 170
1 6 0 170 170 170
2 6 0 170 170 170
3 6 0 170 170 170
4 6 0 170 170 170
5 6 0 170 170 170
6 6 0 170 170 170
7 6 0 170 170 170
8 6 0 170 170 170
9 6 0 170 170 170
10 6 0 170 170 170
11 6 0 170 170 170
12 6 0 170 170 170
13 6 0 170 170 170
14 6 0 170 170 170
15 6 0 170 170 170
16 6 0 170 170 170
17 6 0 170 170 170
18 6 0 170 170 170
19 6 0 170 170 170
20 6 0 170 170 170
21 6 0 170 170 170
22 6 0 170 170 170
23 6 0 170 170 170
24 6 0 170 170 170
25 6 0 170 170 170
26 6 0 170 170 170
27 6 0 170 170 170
28 6 0 170 170 170
29 6 0 170 170 170
0 7 0 170 170 170
1 7 0 170 170 170
2 7 0 170 170 170
3 7 0 170 170 170
4 7 0 170 170 170
5 7 0 170 170 170
6 7 0 170 170 170
7 7 0 170 170 170
8 7 0 170 170 170
9 7 0 170 170 170
10 7 0 170 170 170
11 7 0 170 170 170
12 7 0 170 170 170
13 7 0 170 170 170
14 7 0 170 170 170
15 7 0 170 170 170
16 7 0 170 170 170
17 7 0 170 170 170
18 7 0 170 170 170
19 7 0 170 170 170
20 7 0 170 170 170
21 7 0 170 170 170
22 7 0 170 170 170
23 7 0 170 170 170
24 7 0 170 170 170
25 7 0 170 170 170
26 7 0 170 170 170
27 7 0 170 170 170
28 7 0 170 170 170
29 7 0 170 170 170
0 8 0 170 170 170
1 8 0 170 170 170
2 8 0 170 170 170
3 8 0 170 170 170
4 8 0 170 170 170
5 8 0 170 170 170
6 8 0 170 170 170
7 8 0 170 170 170
8 8 0 170 170 170
9 8 0 170 170 170
10 8 0 170 170 170
11 8 0 170 170 170
12 8 0 170 170 170
13 8 0 170 170 170
14 8 0 170 170 170
15 8 0 170 170 170
16 8 0 170 170 170
17 8 0 170 170 170
18 8 0 170 170 170
19 8 0 170 170 170
20 8 0 170 170 170
21 8 0 170 170 170
22 8 0 170 170 170
23 8 0 170 170 170
24 8 0 170 170 170
25 8 0 170 170 170
26 8 0 170 170 170
27 8 0 170 170 170
28 8 0 170 170 170
29 8 0 170 170 170
0 9 0 170 170 170
1 9 0 170 170 170
2 9 0 170 170 170
3 9 0 170 170 170
4 9 0 170 170 170
5 9 0 170 170 170
6 9 0 170 170 170
7 9 0 170 170 170
8 9 0 170 170 170
9 9 0 170 170 170
10 9 0 170 170 170
11 9 0 170 170 170
12 9 0 170 170 170
13 9 0 170 170 170
14 9 0 170 170 170
15 9 0 170 170 170
16 9 0 170 170 170
17 9 0 170 170 170
18 9 0 170 170 170
19 9 0 170 170 170
20 9 0 170 170 170
21 9 0 170 170 170
22 9 0 170 170 170
23 9 0 170 170 170
24 9 0 170 170 170
25 9 0 170 170 170
26 9 0 170 170 170
27 9 0 170 170 170
28 9 0 170 170 170
29 9 0 170 170 170
0 10 0 170 170 170
1 10 0 170 170 170
2 10 0 170 170 170
3 10 0 170 170 170
4 10 0 170 170 170
5 10 0 170 170 170
6 10 0 170 170 170
7 10 0 170 170 170
8 10 0 170 170 170
9 10 0 170 170 170
10 10 0 170 170 170
11 10 0 170 170 170
12 10 0 170 170 170
13 10 0 170 170 170
14 10 0 170 170 170
15 10 0 170 170 170
16 10 0 170 170 170
17 10 0 170 170 170
18 10 0 170 170 170
19 10 0 170 170 170
20 10 0 170 170 170
21 10 0 170 170 170
22 10 0 170 170 170
23 10 0 170 170 170
24 10 0 170 170 170
25 10 0 170 170 170
26 10 0 170 170 170
27 10 0 170 170 170
28 10 0 170 170 170
29 10 0 170 170 170
0 11 0 170 170 170
1 11 0 170 170 170
2 11 0 170 170 170
3 11 0 170 170 170
4 11 0 170 170 170
5 11 0 170 170 170
6 11 0 170 170 170
7 11 0 170 170 170
8 11 0 170 170 170
9 11 0 170 170 170
10 11 0 170 170 170
11 11 0 170 170 170
18 11 0 170 170 170
19 11 0 170 170 170
20 11 0 170 170 170
21 11 0 170 170 170
22 11 0 170 170 170
23 11 0 170 170 170
24 11 0 170 170 170
25 11 0 170 170 170
26 11 0 170 170 170
27 11 0 170 170 170
28 11 0 170 170 170
29 11 0 170 170 170
0 12 0 170 170 170
1 12 0 170 170 170
2 12 0 170 170 170
3 12 0 170 170 170
4 12 0 170 170 170
5 12 0 170 170 170
6 12 0 170 170 170
7 12 0 170 170 170
8 12 0 170 170 170
9 12 0 170 170 170
10 12 0 170 170 170
19 12 0 170 170 170
20 12 0 170 170 170
21 12 0 170 170 170
22 12 0 170 170 170
23 12 0 170 170 170
24 12 0 170 170 170
25 12 0 170 170 170
26 12 0 170 170 170
27 12 0 170 170 170
28 12 0 170 170 170
29 12 0 170 170 170
0 13 0 170 170 170
1 13 0 170 170 170
2 13 0 170 170 170
3 13 0 170 170 170
4 13 0 170 170 170
5 13 0 170 170 170
6 13 0 170 170 170
7 13 0 170 170 170
8 13 0 170 170 170
9 13 0 170 170 170
10 13 0 170 170 170
19 13 0 170 170 170
20 13 0 170 170 170
21 13 0 170 170 170
22 13 0 170 170 170
23 13 0 170 170 170
24 13 0 170 170 170
25 13 0 170 170 170
26 13 0 170 170 170
27 13 0 170 170 170
28 13 0 170 170 170
29 13 0 170 170 170
0 14 0 170 170 170
1 14 0 170 170 170
2 14 0 170 170 170
3 14 0 170 170 170
4 14 0 170 170 170
5 14 0 170 170 170
6 14 0 170 170 170
7 14 0 170 170 170
8 14 0 170 170 170
9 14 0 170 170 170
10 14 0 170 170 170
19 14 0 170 170 170
20 14 0 170 170 170
21 14 0 170 170 170
22 14 0 170 170 170
23 14 0 170 170 170
24 14 0 170 170 170
25 14 0 170 170 170
26 14 0 170 170 170
27 14 0 170 170 170
28 14 0 170 170 170
29 14 0 170 170 170
0 15 0 170 170 170
1 15 0 170 170 170
2 15 0 170 170 170
3 15 0 170 170 170
4 15 0 170 170 170
5 15 0 170 170 170
6 15 0 170 170 170
7 15 0 170 170 170
8 15 0 170 170 170
9 15 0 170 170 170
10 15 0 170 170 170
19 15 0 170 170 170
20 15 0 170 170 170
21 15 0 170 170 170
22 15 0 170 170 170
23 15 0 170 170 170
24 15 0 170 170 170
25 15 0 170 170 170
26 15 0 170 170 170
27 15 0 170 170 170
28 15 0 170 170 170
29 15 0 170 170 170
0 16 0 170 170 170
1 16 0 170 170 170
2 16 0 170 170 170
3 16 0 170 170 170
4 16 0 170 170 170
5 16 0 170 170 170
6 16 0 170 170 170
7 16 0 170 170 170
8 16 0 170 170 170
9 16 0 170 170 170
10 16 0 170 170 170
19 16 0 170 170 170
20 16 0 170 170 170
21 16 0 170 170 170
22 16 0 170 170 170
23 16 0 170 170 170
24 16 0 170 170 170
25 16 0 170 170 170
26 16 0 170 170 170
27 16 0 170 170 170
28 16 0 170 170 170
29 16 0 170 170 170
0 17 0 170 170 170
1 17 0 170 170 170
2 17 0 170 170 170
3 17 0 170 170 170
4 17 0 170 170 170
5 17 0 170 170 170
6 17 0 170 170 170
7 17 0 170 170 170
8 17 0 170 170 170
9 17 0 170 170 170
10 17 0 170 170 170
19 17 0 170 170 170
20 17 0 170 170 170
21 17 0 170 170 170
22 17 0 170 170 170
23 17 0 170 170 170
24 17 0 170 170 170
25 17 0 170 170 170
26 17 0 170 170 170
27 17 0 170 170 170
28 17 0 170 170 170
29 17 0 170 170 170
0 18 0 170 170 170
1 18 0 170 170 170
2 18 0 170 170 170
3 18 0 170 170 170
4 18 0 170 170 170
5 18 0 170 170 170
6 18 0 170 170 170
7 18 0 170 170 170
8 18 0 170 170 170
9 18 0 170 170 170
10 18 0 170 170 170
11 18 0 170 170 170
18 18 0 170 170 170
19 18 0 170 170 170
20 18 0 170 170 170
21 18 0 170 170 170
22 18 0 170 170 170
23 18 0 170 170 170
24 18 0 170 170 170
25 18 0 170 170 170
26 18 0 170 170 170
27 18 0 170 170 170
28 18 0 170 170 170
29 18 0 170 170 170
0 19 0 170 170 170
1 19 0 170 170 170
2 19 0 170 170 170
3 19 0 170 170 170
4 19 0 170 170 170
5 19 0 170 170 170
6 19 0 170 170 170
7 19 0 170 170 170
8 19 0 170 170 170
9 19 0 170 170 170
10 19 0 170 170 170
11 19 0 170 170 170
12 19 0 170 170 170
13 19 0 170 170 170
14 19 0 170 170 170
15 19 0 170 170 170
16 19 0 170 170 170
17 19 0 170 170 170
18 19 0 170 170 170
19 19 0 170 170 170
20 19 0 170 170 170
21 19 0 170 170 170
22 19 0 170 170 170
23 19 0 170 170 170
24 19 0 170 170 170
25 19 0 170 170 170
26 19 0 170 170 170
27 19 0 170 170 170
28 19 0 170 170 170
29 19 0 170 170 170
0 20 0 170 170 170
1 20 0 170 170 170
2 20 0 170 170 170
3 20 0 170 170 170
4 20 0 170 170 170
5 20 0 170 170 170
6 20 0 170 170 170
7 20 0 170 170 170
8 20 0 170 170 170
9 20 0 170 170 170
10 20 0 170 170 170
11 20 0 170 170 170
12 20 0 170 170 170
13 20 0 170 170 170
14 20 0 170 170 170
15 20 0 170 170 170
16 20 0 170 170 170
17 20 0 170 170 170
18 20 0 170 170 170
19 20 0 170 170 170
20 20 0 170 170 170
21 20 0 170 170 170
22 20 0 170 170 170
23 20 0 170 170 170
24 20 0 170 170 170
25 20 0 170 170 170
26 20 0 170 170 170
27 20 0 170 170 170
28 20 0 170 170 170
29 20 0 170 170 170
0 21 0 170 170 170
1 21 0 170 170 170
2 21 0 170 170 170
3 21 0 170 170 170
4 21 0 170 170 170
5 21 0 170 170 170
6 21 0 170 170 170
7 21 0 170 170 170
8 21 0 170 170 170
9 21 0 170 170 170
10 21 0 170 170 170
11 21 0 170 170 170
12 21 0 170 170 170
13 21 0 170 170 170
14 21 0 170 170 170
15 21 0 170 170 170
16 21 0 170 170 170
17 21 0 170 170 170
18 21 0 170 170 170
19 21 0 170 170 170
20 21 0 170 170 170
21 21 0 170 170 170
22 21 0 170 170 170
23 21 0 170 170 170
24 21 0 170 170 170
25 21 0 170 170 170
26 21 0 170 170 170
27 21 0 170 170 170
28 21 0 170 170 170
29 21 0 170 170 170
0 22 0 170 170 170
1 22 0 170 170 170
2 22 0 170 170 170
3 22 0 170 170 170
4 22 0 170 170 170
5 22 0 170 170 170
6 22 0 170 170 170
7 22 0 170 170 170
8 22 0 170 170 170
9 22 0 170 170 170
10 22 0 170 170 170
11 22 0 170 170 170
12 22 0 170 170 170
13 22 0 170 170 170
14 22 0 170 170 170
15 22 0 170 170 170
16 22 0 170 170 170
17 22 0 170 170 170
18 22 0 170 170 170
19 22 0 170 170 170
20 22 0 170 170 170
21 22 0 170 170 170
22 22 0 170 170 170
23 22 0 170 170 170
24 22 0 170 170 170
25 22 0 170 170 170
26 22 0 170 170 170
27 22 0 170 170 170
28 22 0 170 170 170
29 22 0 170 170 170
0 23 0 170 170 170
1 23 0 170 170 170
2 23 0 170 170 170
3 23 0 170 170 170
4 23 0 170 170 170
5 23 0 170 170 170
6 23 0 170 170 170
7 23 0 170 170 170
8 23 0 170 170 170
9 23 0 170 170 170
10 23 0 170 170 170
11 23 0 170 170 170
12 23 0 170 170 170
13 23 0 170 170 170
14 23 0 170 170 170
15 23 0 170 170 170
16 23 0 170 170 170
17 23 0 170 170 170
18 23 0 170 170 170
19 23 0 170 170 170
20 23 0 170 170 170
21 23 0 170 170 170
22 23 0 170 170 170
23 23 0 170 170 170
24 23 0 170 170 170
25 23 0 170 170 170
26 23 0 170 170 170
27 23 0 170 170 170
28 23 0 170 170 170
29 23 0 170 170 170
0 24 0 170 170 170
1 24 0 170 170 170
2 24 0 170 170 170
3 24 0 170 170 170
4 24 0 170 170 170
5 24 0 170 170 170
6 24 0 170 170 170
7 24 0 170 170 170
8 24 0 170 170 170
9 24 0 170 170 170
10 24 0 170 170 170
11 24 0 170 170 170
12 24 0 170 170 170
13 24 0 170 170 170
14 24 0 170 170 170
15 24 0 170 170 170
16 24 0 170 170 170
17 24 0 170 170 170
18 24 0 170 170 170
19 24 0 170 170 170
20 24 0 170 170 170
21 24 0 170 170 170
22 24 0 170 170 170
23 24 0 170 170 170
24 24 0 170 170 170
25 24 0 170 170 170
26 24 0 170 170 170
27 24 0 170 170 170
28 24 0 170 170 170
29 24 0 170 170 170
0 25 0 170 170 170
1 25 0 170 170 170
2 25 0 170 170 170
3 25 0 170 170 170
4 25 0 170 170 170
5 25 0 170 170 170
6 25 0 170 170 170
7 25 0 170 170 170
8 25 0 170 170 170
9 25 0 170 170 170
10 25 0 170 170 170
11 25 0 170 170 170
12 25 0 170 170 170
13 25 0 170 170 170
14 25 0 170 170 170
15 25 0 170 170 170
16 25 0 170 170 170
17 25 0 170 170 170
18 25 0 170 170 170
19 25 0 170 170 170
20 25 0 170 170 170
21 25 0 170 170 170
22 25 0 170 170 170
23 25 0 170 170 170
24 25 0 170 170 170
25 25 0 170 170 170
26 25 0 170 170 170
27 25 0 170 170 170
28 25 0 170 170 170
29 25 0 170 170 170
1 26 0 170 170 170
2 26 0 170 170 170
3 26 0 170 170 170
4 26 0 170 170 170
5 26 0 170 170 170
6 26 0 170 170 170
7 26 0 170 170 170
8 26 0 170 170 170
9 26 0 170 170 170
10 26 0 170 170 170
11 26 0 170 170 170
12 26 0 170 170 170
13 26 0 170 170 170
14 26 0 170 170 170
15 26 0 170 170 170
16 26 0 170 170 170
17 26 0 170 170 170
18 26 0 170 170 170
19 26 0 170 170 170
20 26 0 170 170 170
21 26 0 170 170 170
22 26 0 170 170 170
23 26 0 170 170 170
24 26 0 170 170 170
25 26 0 170 170 170
26 26 0 170 170 170
27 26 0 170 170 170
28 26 0 170 170 170
2 27 0 170 170 170
3 27 0 170 170 170
4 27 0 170 170 170
5 27 0 170 170 170
6 27 0 170 170 170
7 27 0 170 170 170
8 27 0 170 170 170
9 27 0 170 170 170
10 27 0 170 170 170
11 27 0 170 170 170
12 27 0 170 170 170
13 27 0 170 170 170
14 27 0 170 170 170
15 27 0 170 170 170
16 27 0 170 170 170
17 27 0 170 170 170
18 27 0 170 170 170
19 27 0 170 170 170
20 27 0 170 170 170
21 27 0 170 170 170
22 27 0 170 170 170
23 27 0 170 170 170
24 27 0 170 170 170
25 27 0 170 170 170
26 27 0 170 170 170
27 27 0 170 170 170
3 28 0 170 170 170
4 28 0 170 170 170
5 28 0 170 170 170
6 28 0 170 170 170
7 28 0 170 170 170
8 28 0 170 170 170
9 28 0 170 170 170
10 28 0 170 170 170
11 28 0 170 170 170
12 28 0 170 170 170
13 28 0 170 170 170
14 28 0 170 170 170
15 28 0 170 170 170
16 28 0 170 170 170
17 28 0 170 170 170
18 28 0 170 170 170
19 28 0 170 170 170
20 28 0 170 170 170
21 28 0 170 170 170
22 28 0 170 170 170
23 28 0 170 170 170
24 28 0 170 170 170
25 28 0 170 170 170
26 28 0 170 170 170
4 29 0 170 170 170
5 29 0 170 170 170
6 29 0 170 170 170
7 29 0 170 170 170
8 29 0 170 170 170
9 29 0 170 170 170
10 29 0 170 170 170
11 29 0 170 170 170
12 29 0 170 170 170
13 29 0 170 170 170
14 29 0 170 170 170
15 29 0 170 170 170
16 29 0 170 170 170
17 29 0 170 170 170
18 29 0 170 170 170
19 29 0 170 170 170
20 29 0 170 170 170
21 29 0 170 170 170
22 29 0 170 170 170
23 29 0 170 170 170
24 29 0 170 170 170
25 29 0 170 170 170
2 0 1 170 170 170
3 0 1 170 170 170
4 0 1 170 170 170
5 0 1 170 170 170
6 0 1 170 170 170
7 0 1 170 170 170
8 0 1 170 170 170
9 0 1 170 170 170
10 0 1 170 170 170
11 0 1 170 170 170
12 0 1 170 170 170
13 0 1 170 170 170
14 0 1 170 170 170
15 0 1 170 170 170
16 0 1 170 170 170
17 0 1 170 170 170
18 0 1 170 170 170
19 0 1 170 170 170
20 0 1 170 170 170
21 0 1 170 170 170
22 0 1 170 170 170
23 0 1 170 170 170
24 0 1 170 170 170
25 0 1 170 170 170
26 0 1 170 170 170
27 0 1 170 170 170
1 1 1 170 170 170
2 1 1 170 170 170
3 1 1 170 170 170
4 1 1 170 170 170
5 1 1 170 170 170
6 1 1 170 170 170
7 1 1 170 170 170
8 1 1 170 170 170
9 1 1 170 170 170
10 1 1 170 170 170
11 1 1 170 170 170
12 1 1 170 170 170
13 1 1 170 170 170
14 1 1 170 170 170
15 1 1 170 170 170
16 1 1 170 170 170
17 1 1 170 170 170
18 1 1 170 170 170
19 1 1 170 170 170
20 1 1 170 170 170
21 1 1 170 170 170
22 1 1 170 170 170
23 1 1 170 170 170
24 1 1 170 170 170
25 1 1 170 170 170
26 1 1 170 170 170
27 1 1 170 170 170
28 1 1 170 170 170
0 2 1 170 170 170
1 2 1 170 170 170
2 2 1 170 170 170
3 2 1 170 170 170
4 2 1 170 170 170
5 2 1 170 170 170
6 2 1 170 170 170
7 2 1 170 170 170
8 2 1 170 170 170
9 2 1 170 170 170
10 2 1 170 170 170
11 2 1 170 170 170
12 2 1 170 170 170
13 2 1 170 170 170
14 2 1 170 170 170
15 2 1 170 170 170
16 2 1 170 170 170
17 2 1 170 170 170
18 2 1 170 170 170
19 2 1 170 170 170
20 2 1 170 170 170
21 2 1 170 170 170
22 2 1 170 170 170
23 2 1 170 170 170
24 2 1 170 170 170
25 2 1 170 170 170
26 2 1 170 170 170
27 2 1 170 170 170
28 2 1 170 170 170
29 2 1 170 170 170
0 3 1 170 170 170
1 3 1 170 170 170
2 3 1 170 170 170
3 3 1 170 170 170
4 3 1 170 170 170
5 3 1 170 170 170
6 3 1 170 170 170
7 3 1 170 170 170
8 3 1 170 170 170
9 3 1 170 170 170
10 3 1 170 170 170
11 3 1 170 170 170
12 3 1 170 170 170
13 3 1 170 170 170
14 3 1 170 170 170
15 3 1 170 170 170
16 3 1 170 170 170
17 3 1 170 170 170
18 3 1 170 170 170
19 3 1 170 170 170
20 3 1 170 170 170
21 3 1 170 170 170
22 3 1 170 170 170
23 3 1 170 170 170
24 3 1 170 170 170
25 3 1 170 170 170
26 3 1 170 170 170
27 3 1 170 170 170
28 3 1 170 170 170
29 3 1 170 170 170
0 4 1 170 170 170
1 4 1 170 170 170
2 4 1 170 170 170
3 4 1 170 170 170
4 4 1 170 170 170
5 4 1 170 170 170
6 4 1 170 170 170
7 4 1 170 170 170
8 4 1 170 170 170
9 4 1 170 170 170
10 4 1 170 170 170
11 4 1 170 170 170
12 4 1 170 170 170
13 4 1 170 170 170
14 4 1 170 170 170
15 4 1 170 170 170
16 4 1 170 170 170
17 4 1 170 170 170
18 4 1 170 170 170
19 4 1 170 170 170
20 4 1 170 170 170
21 4 1 170 170 170
22 4 1 170 170 170
23 4 1 170 170 170
24 4 1 170 170 170
25 4 1 170 170 170
26 4 1 170 170 170
27 4 1 170 170 170
28 4 1 170 170 170
29 4 1 170 170 170
0 5 1 170 170 170
1 5 1 170 170 170
2 5 1 170 170 170
3 5 1 170 170 170
4 5 1 170 170 170
5 5 1 170 170 170
6 5 1 170 170 170
7 5 1 170 170 170
8 5 1 170 170 170
9 5 1 170 170 170
10 5 1 170 170 170
11 5 1 170 170 170
12 5 1 170 170 170
13 5 1 170 170 170
14 5 1 170 170 170
15 5 1 170 170 170
16 5 1 170 170 170
17 5 1 170 170 170
18 5 1 170 170 170
19 5 1 170 170 170
20 5 1 170 170 170
21 5 1 170 170 170
22 5 1 170 170 170
23 5 1 170 170 170
24 5 1 170 170 170
25 5 1 170 170 170
26 5 1 170 170 170
27 5 1 170 170 170
28 5 1 170 170 170
29 5 1 170 170 170
0 6 1 170 170 170
1 6 1 170 170 170
2 6 1 170 170 170
3 6 1 170 170 170
4 6 1 170 170 170
5 6 1 170 170 170
6 6 1 170 170 170
7 6 1 170 170 170
8 6 1 170 170 170
9 6 1 170 170 170
10 6 1 170 170 170
11 6 1 170 170 170
12 6 1 170 170 170
13 6 1 170 170 170
14 6 1 170 170 170
15 6 1 170 170 170
16 6 1 170 170 170
17 6 1 170 170 170
18 6 1 170 170 170
19 6 1 170 170 170
20 6 1 170 170 170
21 6 1 170 170 170
22 6 1 170 170 170
23 6 1 170 170 170
24 6 1 170 170 170
25 6 1 170 170 170
26 6 1 170 170 170
27 6 1 170 170 170
28 6 1 170 170 170
29 6 1 170 170 170
0 7 1 170 170 170
1 7 1 170 170 170
2 7 1 170 170 170
3 7 1 170 170 170
4 7 1 170 170 170
5 7 1 170 170 170
6 7 1 170 170 170
7 7 1 170 170 170
8 7 1 170 170 170
9 7 1 170 170 170
10 7 1 170 170 170
11 7 1 170 170 170
12 7 1 170 170 170
13 7 1 170 170 170
14 7 1 170 170 170
15 7 1 170 170 170
16 7 1 170 170 170
17 7 1 170 170 170
18 7 1 170 170 170
19 7 1 170 170 170
20 7 1 170 170 170
21 7 1 170 170 170
22 7 1 170 170 170
23 7 1 170 170 170
24 7 1 170 170 170
25 7 1 170 170 170
26 7 1 170 170 170
27 7 1 170 170 170
28 7 1 170 170 170
29 7 1 170 170 170
0 8 1 170 170 170
1 8 1 170 170 170
2 8 1 170 170 170
3 8 1 170 170 170
4 8 1 170 170 170
5 8 1 170 170 170
6 8 1 170 170 170
7 8 1 170 170 170
8 8 1 170 170 170
9 8 1 170 170 170
10 8 1 170 170 170
11 8 1 170 170 170
12 8 1 170 170 170
13 8 1 170 170 170
14 8 1 170 170 170
15 8 1 170 170 170
16 8 1 170 170 170
17 8 1 170 170 170
18 8 1 170 170 170
19 8 1 170 170 170
20 8 1 170 170 170
21 8 1 170 170 170
22 8 1 170 170 170
23 8 1 170 170 170
24 8 1 170 170 170
25 8 1 170 170 170
26 8 1 170 170 170
27 8 1 170 170 170
28 8 1 170 170 170
29 8 1 170 170 170
0 9 1 170 170 170
1 9 1 170 170 170
2 9 1 170 170 170
3 9 1 170 170 170
4 9 1 170 170 170
5 9 1 170 170 170
6 9 1 170 170 170
7 9 1 170 170 170
8 9 1 170 170 170
9 9 1 170 170 170
10 9 1 170 170 170
11 9 1 170 170 170
12 9 1 170 170 170
13 9 1 170 170 170
14 9 1 170 170 170
15 9 1 170 170 170
16 9 1 170 170 170
17 9 1 170 170 170
18 9 1 170 170 170
19 9 1 170 170 170
20 9 1 170 170 170
21 9 1 170 170 170
22 9 1 170 170 170
23 9 1 170 170 170
24 9 1 170 170 170
25 9 1 170 170 170
26 9 1 170 170 170
27 9 1 170 170 170
28 9 1 170 170 170
29 9 1 170 170 170
0 10 1 170 170 170
1 10 1 170 170 170
2 10 1 170 170 170
3 10 1 170 170 170
4 10 1 170 170 170
5 10 1 170 170 170
6 10 1 170 170 170
7 10 1 170 170 170
8 10 1 170 170 170
9 10 1 170 170 170
10 10 1 170 170 170
11 10 1 170 170 170
12 10 1 170 170 170
13 10 1 170 170 170
14 10 1 170 170 170
15 10 1 170 170 170
16 10 1 170 170 170
17 10 1 170 170 170
18 10 1 170 170 170
19 10 1 170 170 170
20 10 1 170 170 170
21 10 1 170 170 170
22 10 1 170 170 170
23 10 1 170 170 170
24 10 1 170 170 170
25 10 1 170 170 170
26 10 1 170 170 170
27 10 1 170 170 170
28 10 1 170 170 170
29 10 1 170 170 170
0 11 1 170 170 170
1 11 1 170 170 170
2 11 1 170 170 170
3 11 1 170 170 170
4 11 1 170 170 170
5 11 1 170 170 170
6 11 1 170 170 170
7 11 1 170 170 170
8 11 1 170 170 170
9 11 1 170 170 170
10 11 1 170 170 170
11 11 1 170 170 170
12 11 1 170 170 170
17 11 1 170 170 170
18 11 1 170 170 170
19 11 1 170 170 170
20 11 1 170 170 170
21 11 1 170 170 170
22 11 1 170 170 170
23 11 1 170 170 170
24 11 1 170 170 170
25 11 1 170 170 170
26 11 1 170 170 170
27 11 1 170 170 170
28 11 1 170 170 170
29 11 1 170 170 170
0 12 1 170 170 170
1 12 1 170 170 170
2 12 1 170 170 170
3 12 1 170 170 170
4 12 1 170 170 170
5 12 1 170 170 170
6 12 1 170 170 170
7 12 1 170 170 170
8 12 1 170 170 170
9 12 1 170 170 170
10 12 1 170 170 170
11 12 1 170 170 170
18 12 1 170 170 170
19 12 1 170 170 170
20 12 1 170 170 170
21 12 1 170 170 170
22 12 1 170 170 170
23 12 1 170 170 170
24 12 1 170 170 170
25 12 1 170 170 170
26 12 1 170 170 170
27 12 1 170 170 170
28 12 1 170 170 170
29 12 1 170 170 170
0 13 1 170 170 170
1 13 1 170 170 170
2 13 1 170 170 170
3 13 1 170 170 170
4 13 1 170 170 170
5 13 1 170 170 170
6 13 1 170 170 170
7 13 1 170 170 170
8 13 1 170 170 170
9 13 1 170 170 170
10 13 1 170 170 170
19 13 1 170 170 170
20 13 1 170 170 170
21 13 1 170 170 170
22 13 1 170 170 170
23 13 1 170 170 170
24 13 1 170 170 170
25 13 1 170 170 170
26 13 1 170 170 170
27 13 1 170 170 170
28 13 1 170 170 170
29 13 1 170 170 170
0 14 1 170 170 170
1 14 1 170 170 170
2 14 1 170 170 170
3 14 1 170 170 170
4 14 1 170 170 170
5 14 1 170 170 170
6 14 1 170 170 170
7 14 1 170 170 170
8 14 1 170 170 170
9 14 1 170 170 170
10 14 1 170 170 170
19 14 1 170 170 170
20 14 1 170 170 170
21 14 1 170 170 170
22 14 1 170 170 170
23 14 1 170 170 170
24 14 1 170 170 170
25 14 1 170 170 170
26 14 1 170 170 170
27 14 1 170 170 170
28 14 1 170 170 170
29 14 1 170 170 170
0 15 1 170 170 170
1 15 1 170 170 170
2 15 1 170 170 170
3 15 1 170 170 170
4 15 1 170 170 170
5 15 1 170 170 170
6 15 1 170 170 170
7 15 1 170 170 170
8 15 1 170 170 170
9 15 1 170 170 170
10 15 1 170 170 170
19 15 1 170 170 170
20 15 1 170 170 170
21 15 1 170 170 170
22 15 1 170 170 170
23 15 1 170 170 170
24 15 1 170 170 170
25 15 1 170 170 170
26 15 1 170 170 170
27 15 1 170 170 170
28 15 1 170 170 170
29 15 1 170 170 170
0 16 1 170 170 170
1 16 1 170 170 170
2 16 1 170 170 170
3 16 1 170 170 170
4 16 1 170 170 170
5 16 1 170 170 170
6 16 1 170 170 170
7 16 1 170 170 170
8 16 1 170 170 170
9 16 1 170 170 170
10 16 1 170 170 170
19 16 1 170 170 170
20 16 1 170 170 170
21 16 1 170 170 170
22 16 1 170 170 170
23 16 1 170 170 170
24 16 1 170 170 170
25 16 1 170 170 170
26 16 1 170 170 170
27 16 1 170 170 170
28 16 1 170 170 170
29 16 1 170 170 170
0 17 1 170 170 170
1 17 1 170 170 170
2 17 1 170 170 170
3 17 1 170 170 170
4 17 1 170 170 170
5 17 1 170 170 170
6 17 1 170 170 170
7 17 1 170 170 170
8 17 1 170 170 170
9 17 1 170 170 170
10 17 1 170 170 170
11 17 1 170 170 170
18 17 1 170 170 170
19 17 1 170 170 170
20 17 1 170 170 170
21 17 1 170 170 170
22 17 1 170 170 170
23 17 1 170 170 170
24 17 1 170 170 170
25 17 1 170 170 170
26 17 1 170 170 170
27 17 1 170 170 170
28 17 1 170 170 170
29 17 1 170 170 170
0 18 1 170 170 170
1 18 1 170 170 170
2 18 1 170 170 170
3 18 1 170 170 170
4 18 1 170 170 170
5 18 1 170 170 170
6 18 1 170 170 170
7 18 1 170 170 170
8 18 1 170 170 170
9 18 1 170 170 170
10 18 1 170 170 170
11 18 1 170 170 170
12 18 1 170 170 170
17 18 1 170 170 170
18 18 1 170 170 170
19 18 1 170 170 170
20 18 1 170 170 170
21 18 1 170 170 170
22 18 1 170 170 170
23 18 1 170 170 170
24 18 1 170 170 170
25 18 1 170 170 170
26 18 1 170 170 170
27 18 1 170 170 170
28 18 1 170 170 170
29 18 1 170 170 170
0 19 1 170 170 170
1 19 1 170 170 170
2 19 1 170 170 170
3 19 1 170 170 170
4 19 1 170 170 170
5 19 1 170 170 170
6 19 1 170 170 170
7 19 1 170 170 170
8 19 1 170 170 170
9 19 1 170 170 170
10 19 1 170 170 170
11 19 1 170 170 170
12 19 1 170 170 170
13 19 1 170 170 170
14 19 1 170 170 170
15 19 1 170 170 170
16 19 1 170 170 170
17 19 1 170 170 170
18 19 1 170 170 170
19 19 1 170 170 170
20 19 1 170 170 170
21 19 1 170 170 170
22 19 1 170 170 170
23 19 1 170 170 170
24 19 1 170 170 170
25 19 1 170 170 170
26 19 1 170 170 170
27 19 1 170 170 170
28 19 1 170 170 170
29 19 1 170 170 170
0 20 1 170 170 170
1 20 1 170 170 170
2 20 1 170 170 170
3 20 1 170 170 170
4 20 1 170 170 170
5 20 1 170 170 170
6 20 1 170 170 170
7 20 1 170 170 170
8 20 1 170 170 170
9 20 1 170 170 170
10 20 1 170 170 170
11 20 1 170 170 170
12 20 1 170 170 170
13 20 1 170 170 170
14 20 1 170 170 170
15 20 1 170 170 170
16 20 1 170 170 170
17 20 1 170 170 170
18 20 1 170 170 170
19 20 1 170 170 170
20 20 1 170 170 170
21 20 1 170 170 170
22 20 1 170 170 170
23 20 1 170 170 170
24 20 1 170 170 170
25 20 1 170 170 170
26 20 1 170 170 170
27 20 1 170 170 170
28 20 1 170 170 170
29 20 1 170 170 170
0 21 1 170 170 170
1 21 1 170 170 170
2 21 1 170 170 170
3 21 1 170 170 170
4 21 1 170 170 170
5 21 1 170 170 170
6 21 1 170 170 170
7 21 1 170 170 170
8 21 1 170 170 170
9 21 1 170 170 170
10 21 1 170 170 170
11 21 1 170 170 170
12 21 1 170 170 170
13 21 1 170 170 170
14 21 1 170 170 170
15 21 1 170 170 170
16 21 1 170 170 170
17 21 1 170 170 170
18 21 1 170 170 170
19 21 1 170 170 170
20 21 1 170 170 170
21 21 1 170 170 170
22 21 1 170 170 170
23 21 1 170 170 170
24 21 1 170 170 170
25 21 1 170 170 170
26 21 1 170 170 170
27 21 1 170 170 170
28 21 1 170 170 170
29 21 1 170 170 170
0 22 1 170 170 170
1 22 1 170 170 170
2 22 1 170 170 170
3 22 1 170 170 170
4 22 1 170 170 170
5 22 1 170 170 170
6 22 1 170 170 170
7 22 1 170 170 170
8 22 1 170 170 170
9 22 1 170 170 170
10 22 1 170 170 170
11 22 1 170 170 170
12 22 1 170 170 170
13 22 1 170 170 170
14 22 1 170 170 170
15 22 1 170 170 170
16 22 1 170 170 170
17 22 1 170 170 170
18 22 1 170 170 170
19 22 1 170 170 170
20 22 1 170 170 170
21 22 1 170 170 170
22 22 1 170 170 170
23 22 1 170 170 170
24 22 1 170 170 170
25 22 1 170 170 170
26 22 1 170 170 170
27 22 1 170 170 170
28 22 1 170 170 170
29 22 1 170 170 170
0 23 1 170 170 170
1 23 1 170 170 170
2 23 1 170 170 170
3 23 1 170 170 170
4 23 1 170 170 170
5 23 1 170 170 170
6 23 1 170 170 170
7 23 1 170 170 170
8 23 1 170 170 170
9 23 1 170 170 170
10 23 1 170 170 170
11 23 1 170 170 170
12 23 1 170 170 170
13 23 1 170 170 170
14 23 1 170 170 170
15 23 1 170 170 170
16 23 1 170 170 170
17 23 1 170 170 170
18 23 1 170 170 170
19 23 1 170 170 170
20 23 1 170 170 170
21 23 1 170 170 170
22 23 1 170 170 170
23 23 1 170 170 170
24 23 1 170 170 170
25 23 1 170 170 170
26 23 1 170 170 170
27 23 1 170 170 170
28 23 1 170 170 170
29 23 1 170 170 170
0 24 1 170 170 170
1 24 1 170 170 170
2 24 1 170 170 170
3 24 1 170 170 170
4 24 1 170 170 170
5 24 1 170 170 170
6 24 1 170 170 170
7 24 1 170 170 170
8 24 1 170 170 170
9 24 1 170 170 170
10 24 1 170 170 170
11 24 1 170 170 170
12 24 1 170 170 170
13 24 1 170 170 170
14 24 1 170 170 170
15 24 1 170 170 170
16 24 1 170 170 170
17 24 1 170 170 170
18 24 1 170 170 170
19 24 1 170 170 170
20 24 1 170 170 170
21 24 1 170 170 170
22 24 1 170 170 170
23 24 1 170 170 170
24 24 1 170 170 170
25 24 1 170 170 170
26 24 1 170 170 170
27 24 1 170 170 170
28 24 1 170 170 170
29 24 1 170 170 170
0 25 1 170 170 170
1 25 1 170 170 170
2 25 1 170 170 170
3 25 1 170 170 170
4 25 1 170 170 170
5 25 1 170 170 170
6 25 1 170 170 170
7 25 1 170 170 170
8 25 1 170 170 170
9 25 1 170 170 170
10 25 1 170 170 170
11 25 1 170 170 170
12 25 1 170 170 170
13 25 1 170 170 170
14 25 1 170 170 170
15 25 1 170 170 170
16 25 1 170 170 170
17 25 1 170 170 170
18 25 1 170 170 170
19 25 1 170 170 170
20 25 1 170 170 170
21 25 1 170 170 170
22 25 1 170 170 170
23 25 1 170 170 170
24 25 1 170 170 170
25 25 1 170 170 170
26 25 1 170 170 170
27 25 1 170 170 170
28 25 1 170 170 170
29 25 1 170 170 170
0 26 1 170 170 170
1 26 1 170 170 170
2 26 1 170 170 170
3 26 1 170 170 170
4 26 1 170 170 170
5 26 1 170 170 170
6 26 1 170 170 170
7 26 1 170 170 170
8 26 1 170 170 170
9 26 1 170 170 170
10 26 1 170 170 170
11 26 1 170 170 170
12 26 1 170 170 170
13 26 1 170 170 170
14 26 1 170 170 170
15 26 1 170 170 170
16 26 1 170 170 170
17 26 1 170 170 170
18 26 1 170 170 170
19 26 1 170 170 170
20 26 1 170 170 170
21 26 1 170 170 170
22 26 1 170 170 170
23 26 1 170 170 170
24 26 1 170 170 170
25 26 1 170 170 170
26 26 1 170 170 170
27 26 1 170 170 170
28 26 1 170 170 170
29 26 1 170 170 170
0 27 1 170 170 170
1 27 1 170 170 170
2 27 1 170 170 170
3 27 1 170 170 170
4 27 1 170 170 170
5 27 1 170 170 170
6 27 1 170 170 170
7 27 1 170 170 170
8 27 1 170 170 170
9 27 1 170 170 170
10 27 1 170 170 170
11 27 1 170 170 170
12 27 1 170 170 170
13 27 1 170 170 170
14 27 1 170 170 170
15 27 1 170 170 170
16 27 1 170 170 170
17 27 1 170 170 170
18 27 1 170 170 170
19 27 1 170 170 170
20 27 1 170 170 170
21 27 1 170 170 170
22 27 1 170 170 170
23 27 1 170 170 170
24 27 1 170 170 170
25 27 1 170 170 170
26 27 1 170 170 170
27 27 1 170 170 170
28 27 1 170 170 170
29 27 1 170 170 170
1 28 1 170 170 170
2 28 1 170 170 170
3 28 1 170 170 170
4 28 1 170 170 170
5 28 1 170 170 170
6 28 1 170 170 170
7 28 1 170 170 170
8 28 1 170 170 170
9 28 1 170 170 170
10 28 1 170 170 170
11 28 1 170 170 170
12 28 1 170 170 170
13 28 1 170 170 170
14 28 1 170 170 170
15 28 1 170 170 170
16 28 1 170 170 170
17 28 1 170 170 170
18 28 1 170 170 170
19 28 1 170 170 170
20 28 1 170 170 170
21 28 1 170 170 170
22 28 1 170 170 170
23 28 1 170 170 170
24 28 1 170 170 170
25 28 1 170 170 170
26 28 1 170 170 170
27 28 1 170 170 170
28 28 1 170 170 170
2 29 1 170 170 170
3 29 1 170 170 170
4 29 1 170 170 170
5 29 1 170 170 170
6 29 1 170 170 170
7 29 1 170 170 170
8 29 1 170 170 170
9 29 1 170 170 170
10 29 1 170 170 170
11 29 1 170 170 170
12 29 1 170 170 170
13 29 1 170 170 170
14 29 1 170 170 170
15 29 1 170 170 170
16 29 1 170 170 170
17 29 1 170 170 170
18 29 1 170 170 170
19 29 1 170 170 170
20 29 1 170 170 170
21 29 1 170 170 170
22 29 1 170 170 170
23 29 1 170 170 170
24 29 1 170 170 170
25 29 1 170 170 170
26 29 1 170 170 170
27 29 1 170 170 170
