ply
format ascii 1.0
comment : MagicaVoxel @ Ephtracy
element vertex 1072
property float x
property float y
property float z
property uchar red
property uchar green
property uchar blue
end_header
4 0 0 170 170 170
5 0 0 170 170 170
6 0 0 170 170 170
7 0 0 170 170 170
8 0 0 170 170 170
9 0 0 170 170 170
10 0 0 170 170 170
11 0 0 170 170 170
12 0 0 170 170 170
13 0 0 170 170 170
14 0 0 170 170 170
15 0 0 170 170 170
3 1 0 170 170 170
4 1 0 170 170 170
5 1 0 170 170 170
6 1 0 170 170 170
7 1 0 170 170 170
8 1 0 170 170 170
9 1 0 170 170 170
10 1 0 170 170 170
11 1 0 170 170 170
12 1 0 170 170 170
13 1 0 170 170 170
14 1 0 170 170 170
15 1 0 170 170 170
16 1 0 170 170 170
2 2 0 170 170 170
3 2 0 170 170 170
4 2 0 170 170 170
5 2 0 170 170 170
6 2 0 170 170 170
7 2 0 170 170 170
8 2 0 170 170 170
9 2 0 170 170 170
10 2 0 170 170 170
11 2 0 170 170 170
12 2 0 170 170 170
13 2 0 170 170 170
14 2 0 170 170 170
15 2 0 170 170 170
16 2 0 170 170 170
17 2 0 170 170 170
1 3 0 170 170 170
2 3 0 170 170 170
3 3 0 170 170 170
4 3 0 170 170 170
5 3 0 170 170 170
6 3 0 170 170 170
7 3 0 170 170 170
8 3 0 170 170 170
9 3 0 170 170 170
10 3 0 170 170 170
11 3 0 170 170 170
12 3 0 170 170 170
13 3 0 170 170 170
14 3 0 170 170 170
15 3 0 170 170 170
16 3 0 170 170 170
17 3 0 170 170 170
18 3 0 170 170 170
0 4 0 170 170 170
1 4 0 170 170 170
2 4 0 170 170 170
3 4 0 170 170 170
4 4 0 170 170 170
5 4 0 170 170 170
6 4 0 170 170 170
7 4 0 170 170 170
8 4 0 170 170 170
9 4 0 170 170 170
10 4 0 170 170 170
11 4 0 170 170 170
12 4 0 170 170 170
13 4 0 170 170 170
14 4 0 170 170 170
15 4 0 170 170 170
16 4 0 170 170 170
17 4 0 170 170 170
18 4 0 170 170 170
19 4 0 170 170 170
0 5 0 170 170 170
1 5 0 170 170 170
2 5 0 170 170 170
3 5 0 170 170 170
4 5 0 170 170 170
5 5 0 170 170 170
6 5 0 170 170 170
7 5 0 170 170 170
8 5 0 170 170 170
9 5 0 170 170 170
10 5 0 170 170 170
11 5 0 170 170 170
12 5 0 170 170 170
13 5 0 170 170 170
14 5 0 170 170 170
15 5 0 170 170 170
16 5 0 170 170 170
17 5 0 170 170 170
18 5 0 170 170 170
19 5 0 170 170 170
0 6 0 170 170 170
1 6 0 170 170 170
2 6 0 170 170 170
3 6 0 170 170 170
4 6 0 170 170 170
5 6 0 170 170 170
6 6 0 170 170 170
7 6 0 170 170 170
8 6 0 170 170 170
9 6 0 170 170 170
10 6 0 170 170 170
11 6 0 170 170 170
12 6 0 170 170 170
13 6 0 170 170 170
14 6 0 170 170 170
15 6 0 170 170 170
16 6 0 170 170 170
17 6 0 170 170 170
18 6 0 170 170 170
19 6 0 170 170 170
0 7 0 170 170 170
1 7 0 170 170 170
2 7 0 170 170 170
3 7 0 170 170 170
4 7 0 170 170 170
5 7 0 170 170 170
6 7 0 170 170 170
7 7 0 170 170 170
8 7 0 170 170 170
9 7 0 170 170 170
10 7 0 170 170 170
11 7 0 170 170 170
12 7 0 170 170 170
13 7 0 170 170 170
14 7 0 170 170 170
15 7 0 170 170 170
16 7 0 170 170 170
17 7 0 170 170 170
18 7 0 170 170 170
19 7 0 170 170 170
0 8 0 170 170 170
1 8 0 170 170 170
2 8 0 170 170 170
3 8 0 170 170 170
4 8 0 170 170 170
5 8 0 170 170 170
6 8 0 170 170 170
7 8 0 170 170 170
8 8 0 170 170 170
9 8 0 170 170 170
10 8 0 170 170 170
11 8 0 170 170 170
12 8 0 170 170 170
13 8 0 170 170 170
14 8 0 170 170 170
15 8 0 170 170 170
16 8 0 170 170 170
17 8 0 170 170 170
18 8 0 170 170 170
19 8 0 170 170 170
0 9 0 170 170 170
1 9 0 170 170 170
2 9 0 170 170 170
3 9 0 170 170 170
4 9 0 170 170 170
5 9 0 170 170 170
6 9 0 170 170 170
7 9 0 170 170 170
8 9 0 170 170 170
9 9 0 170 170 170
10 9 0 170 170 170
11 9 0 170 170 170
12 9 0 170 170 170
13 9 0 170 170 170
14 9 0 170 170 170
15 9 0 170 170 170
16 9 0 170 170 170
17 9 0 170 170 170
18 9 0 170 170 170
19 9 0 170 170 170
0 10 0 170 170 170
1 10 0 170 170 170
2 10 0 170 170 170
3 10 0 170 170 170
4 10 0 170 170 170
5 10 0 170 170 170
6 10 0 170 170 170
7 10 0 170 170 170
8 10 0 170 170 170
9 10 0 170 170 170
10 10 0 170 170 170
11 10 0 170 170 170
12 10 0 170 170 170
13 10 0 170 170 170
14 10 0 170 170 170
15 10 0 170 170 170
16 10 0 170 170 170
17 10 0 170 170 170
18 10 0 170 170 170
19 10 0 170 170 170
0 11 0 170 170 170
1 11 0 170 170 170
2 11 0 170 170 170
3 11 0 170 170 170
4 11 0 170 170 170
5 11 0 170 170 170
6 11 0 170 170 170
7 11 0 170 170 170
8 11 0 170 170 170
9 11 0 170 170 170
10 11 0 170 170 170
11 11 0 170 170 170
12 11 0 170 170 170
13 11 0 170 170 170
14 11 0 170 170 170
15 11 0 170 170 170
16 11 0 170 170 170
17 11 0 170 170 170
18 11 0 170 170 170
19 11 0 170 170 170
0 12 0 170 170 170
1 12 0 170 170 170
2 12 0 170 170 170
3 12 0 170 170 170
4 12 0 170 170 170
5 12 0 170 170 170
6 12 0 170 170 170
7 12 0 170 170 170
8 12 0 170 170 170
9 12 0 170 170 170
10 12 0 170 170 170
11 12 0 170 170 170
12 12 0 170 170 170
13 12 0 170 170 170
14 12 0 170 170 170
15 12 0 170 170 170
16 12 0 170 170 170
17 12 0 170 170 170
18 12 0 170 170 170
19 12 0 170 170 170
0 13 0 170 170 170
1 13 0 170 170 170
2 13 0 170 170 170
3 13 0 170 170 170
4 13 0 170 170 170
5 13 0 170 170 170
6 13 0 170 170 170
7 13 0 170 170 170
8 13 0 170 170 170
9 13 0 170 170 170
10 13 0 170 170 170
11 13 0 170 170 170
12 13 0 170 170 170
13 13 0 170 170 170
14 13 0 170 170 170
15 13 0 170 170 170
16 13 0 170 170 170
17 13 0 170 170 170
18 13 0 170 170 170
19 13 0 170 170 170
0 14 0 170 170 170
1 14 0 170 170 170
2 14 0 170 170 170
3 14 0 170 170 170
4 14 0 170 170 170
5 14 0 170 170 170
6 14 0 170 170 170
7 14 0 170 170 170
8 14 0 170 170 170
9 14 0 170 170 170
10 14 0 170 170 170
11 14 0 170 170 170
12 14 0 170 170 170
13 14 0 170 170 170
14 14 0 170 170 170
15 14 0 170 170 170
16 14 0 170 170 170
17 14 0 170 170 170
18 14 0 170 170 170
19 14 0 170 170 170
0 15 0 170 170 170
1 15 0 170 170 170
2 15 0 170 170 170
3 15 0 170 170 170
4 15 0 170 170 170
5 15 0 170 170 170
6 15 0 170 170 170
7 15 0 170 170 170
8 15 0 170 170 170
9 15 0 170 170 170
10 15 0 170 170 170
11 15 0 170 170 170
12 15 0 170 170 170
13 15 0 170 170 170
14 15 0 170 170 170
15 15 0 170 170 170
16 15 0 170 170 170
17 15 0 170 170 170
18 15 0 170 170 170
19 15 0 170 170 170
1 16 0 170 170 170
2 16 0 170 170 170
3 16 0 170 170 170
4 16 0 170 170 170
5 16 0 170 170 170
6 16 0 170 170 170
7 16 0 170 170 170
8 16 0 170 170 170
9 16 0 170 170 170
10 16 0 170 170 170
11 16 0 170 170 170
12 16 0 170 170 170
13 16 0 170 170 170
14 16 0 170 170 170
15 16 0 170 170 170
16 16 0 170 170 170
17 16 0 170 170 170
18 16 0 170 170 170
2 17 0 170 170 170
3 17 0 170 170 170
4 17 0 170 170 170
5 17 0 170 170 170
6 17 0 170 170 170
7 17 0 170 170 170
8 17 0 170 170 170
9 17 0 170 170 170
10 17 0 170 170 170
11 17 0 170 170 170
12 17 0 170 170 170
13 17 0 170 170 170
14 17 0 170 170 170
15 17 0 170 170 170
16 17 0 170 170 170
17 17 0 170 170 170
3 18 0 170 170 170
4 18 0 170 170 170
5 18 0 170 170 170
6 18 0 170 170 170
7 18 0 170 170 170
8 18 0 170 170 170
9 18 0 170 170 170
10 18 0 170 170 170
11 18 0 170 170 170
12 18 0 170 170 170
13 18 0 170 170 170
14 18 0 170 170 170
15 18 0 170 170 170
16 18 0 170 170 170
4 19 0 170 170 170
5 19 0 170 170 170
6 19 0 170 170 170
7 19 0 170 170 170
8 19 0 170 170 170
9 19 0 170 170 170
10 19 0 170 170 170
11 19 0 170 170 170
12 19 0 170 170 170
13 19 0 170 170 170
14 19 0 170 170 170
15 19 0 170 170 170
3 0 1 170 170 170
4 0 1 170 170 170
5 0 1 170 170 170
6 0 1 170 170 170
7 0 1 170 170 170
8 0 1 170 170 170
9 0 1 170 170 170
10 0 1 170 170 170
11 0 1 170 170 170
12 0 1 170 170 170
13 0 1 170 170 170
14 0 1 170 170 170
15 0 1 170 170 170
16 0 1 170 170 170
2 1 1 170 170 170
3 1 1 170 170 170
4 1 1 170 170 170
5 1 1 170 170 170
6 1 1 170 170 170
7 1 1 170 170 170
8 1 1 170 170 170
9 1 1 170 170 170
10 1 1 170 170 170
11 1 1 170 170 170
12 1 1 170 170 170
13 1 1 170 170 170
14 1 1 170 170 170
15 1 1 170 170 170
16 1 1 170 170 170
17 1 1 170 170 170
1 2 1 170 170 170
2 2 1 170 170 170
3 2 1 170 170 170
4 2 1 170 170 170
5 2 1 170 170 170
6 2 1 170 170 170
7 2 1 170 170 170
8 2 1 170 170 170
9 2 1 170 170 170
10 2 1 170 170 170
11 2 1 170 170 170
12 2 1 170 170 170
13 2 1 170 170 170
14 2 1 170 170 170
15 2 1 170 170 170
16 2 1 170 170 170
17 2 1 170 170 170
18 2 1 170 170 170
0 3 1 170 170 170
1 3 1 170 170 170
2 3 1 170 170 170
3 3 1 170 170 170
4 3 1 170 170 170
5 3 1 170 170 170
6 3 1 170 170 170
7 3 1 170 170 170
8 3 1 170 170 170
9 3 1 170 170 170
10 3 1 170 170 170
11 3 1 170 170 170
12 3 1 170 170 170
13 3 1 170 170 170
14 3 1 170 170 170
15 3 1 170 170 170
16 3 1 170 170 170
17 3 1 170 170 170
18 3 1 170 170 170
19 3 1 170 170 170
0 4 1 170 170 170
1 4 1 170 170 170
2 4 1 170 170 170
3 4 1 170 170 170
4 4 1 170 170 170
5 4 1 170 170 170
6 4 1 170 170 170
7 4 1 170 170 170
8 4 1 170 170 170
9 4 1 170 170 170
10 4 1 170 170 170
11 4 1 170 170 170
12 4 1 170 170 170
13 4 1 170 170 170
14 4 1 170 170 170
15 4 1 170 170 170
16 4 1 170 170 170
17 4 1 170 170 170
18 4 1 170 170 170
19 4 1 170 170 170
0 5 1 170 170 170
1 5 1 170 170 170
2 5 1 170 170 170
3 5 1 170 170 170
4 5 1 170 170 170
5 5 1 170 170 170
6 5 1 170 170 170
7 5 1 170 170 170
8 5 1 170 170 170
9 5 1 170 170 170
10 5 1 170 170 170
11 5 1 170 170 170
12 5 1 170 170 170
13 5 1 170 170 170
14 5 1 170 170 170
15 5 1 170 170 170
16 5 1 170 170 170
17 5 1 170 170 170
18 5 1 170 170 170
19 5 1 170 170 170
0 6 1 170 170 170
1 6 1 170 170 170
2 6 1 170 170 170
3 6 1 170 170 170
4 6 1 170 170 170
5 6 1 170 170 170
6 6 1 170 170 170
7 6 1 170 170 170
8 6 1 170 170 170
9 6 1 170 170 170
10 6 1 170 170 170
11 6 1 170 170 170
12 6 1 170 170 170
13 6 1 170 170 170
14 6 1 170 170 170
15 6 1 170 170 170
16 6 1 170 170 170
17 6 1 170 170 170
18 6 1 170 170 170
19 6 1 170 170 170
0 7 1 170 170 170
1 7 1 170 170 170
2 7 1 170 170 170
3 7 1 170 170 170
4 7 1 170 170 170
5 7 1 170 170 170
6 7 1 170 170 170
7 7 1 170 170 170
8 7 1 170 170 170
9 7 1 170 170 170
10 7 1 170 170 170
11 7 1 170 170 170
12 7 1 170 170 170
13 7 1 170 170 170
14 7 1 170 170 170
15 7 1 170 170 170
16 7 1 170 170 170
17 7 1 170 170 170
18 7 1 170 170 170
19 7 1 170 170 170
0 8 1 170 170 170
1 8 1 170 170 170
2 8 1 170 170 170
3 8 1 170 170 170
4 8 1 170 170 170
5 8 1 170 170 170
6 8 1 170 170 170
7 8 1 170 170 170
12 8 1 170 170 170
13 8 1 170 170 170
14 8 1 170 170 170
15 8 1 170 170 170
16 8 1 170 170 170
17 8 1 170 170 170
18 8 1 170 170 170
19 8 1 170 170 170
0 9 1 170 170 170
1 9 1 170 170 170
2 9 1 170 170 170
3 9 1 170 170 170
4 9 1 170 170 170
5 9 1 170 170 170
6 9 1 170 170 170
7 9 1 170 170 170
12 9 1 170 170 170
13 9 1 170 170 170
14 9 1 170 170 170
15 9 1 170 170 170
16 9 1 170 170 170
17 9 1 170 170 170
18 9 1 170 170 170
19 9 1 170 170 170
0 10 1 170 170 170
1 10 1 170 170 170
2 10 1 170 170 170
3 10 1 170 170 170
4 10 1 170 170 170
5 10 1 170 170 170
6 10 1 170 170 170
7 10 1 170 170 170
12 10 1 170 170 170
13 10 1 170 170 170
14 10 1 170 170 170
15 10 1 170 170 170
16 10 1 170 170 170
17 10 1 170 170 170
18 10 1 170 170 170
19 10 1 170 170 170
0 11 1 170 170 170
1 11 1 170 170 170
2 11 1 170 170 170
3 11 1 170 170 170
4 11 1 170 170 170
5 11 1 170 170 170
6 11 1 170 170 170
7 11 1 170 170 170
12 11 1 170 170 170
13 11 1 170 170 170
14 11 1 170 170 170
15 11 1 170 170 170
16 11 1 170 170 170
17 11 1 170 170 170
18 11 1 170 170 170
19 11 1 170 170 170
0 12 1 170 170 170
1 12 1 170 170 170
2 12 1 170 170 170
3 12 1 170 170 170
4 12 1 170 170 170
5 12 1 170 170 170
6 12 1 170 170 170
7 12 1 170 170 170
8 12 1 170 170 170
9 12 1 170 170 170
10 12 1 170 170 170
11 12 1 170 170 170
12 12 1 170 170 170
13 12 1 170 170 170
14 12 1 170 170 170
15 12 1 170 170 170
16 12 1 170 170 170
17 12 1 170 170 170
18 12 1 170 170 170
19 12 1 170 170 170
0 13 1 170 170 170
1 13 1 170 170 170
2 13 1 170 170 170
3 13 1 170 170 170
4 13 1 170 170 170
5 13 1 170 170 170
6 13 1 170 170 170
7 13 1 170 170 170
8 13 1 170 170 170
9 13 1 170 170 170
10 13 1 170 170 170
11 13 1 170 170 170
12 13 1 170 170 170
13 13 1 170 170 170
14 13 1 170 170 170
15 13 1 170 170 170
16 13 1 170 170 170
17 13 1 170 170 170
18 13 1 170 170 170
19 13 1 170 170 170
0 14 1 170 170 170
1 14 1 170 170 170
2 14 1 170 170 170
3 14 1 170 170 170
4 14 1 170 170 170
5 14 1 170 170 170
6 14 1 170 170 170
7 14 1 170 170 170
8 14 1 170 170 170
9 14 1 170 170 170
10 14 1 170 170 170
11 14 1 170 170 170
12 14 1 170 170 170
13 14 1 170 170 170
14 14 1 170 170 170
15 14 1 170 170 170
16 14 1 170 170 170
17 14 1 170 170 170
18 14 1 170 170 170
19 14 1 170 170 170
0 15 1 170 170 170
1 15 1 170 170 170
2 15 1 170 170 170
3 15 1 170 170 170
4 15 1 170 170 170
5 15 1 170 170 170
6 15 1 170 170 170
7 15 1 170 170 170
8 15 1 170 170 170
9 15 1 170 170 170
10 15 1 170 170 170
11 15 1 170 170 170
12 15 1 170 170 170
13 15 1 170 170 170
14 15 1 170 170 170
15 15 1 170 170 170
16 15 1 170 170 170
17 15 1 170 170 170
18 15 1 170 170 170
19 15 1 170 170 170
0 16 1 170 170 170
1 16 1 170 170 170
2 16 1 170 170 170
3 16 1 170 170 170
4 16 1 170 170 170
5 16 1 170 170 170
6 16 1 170 170 170
7 16 1 170 170 170
8 16 1 170 170 170
9 16 1 170 170 170
10 16 1 170 170 170
11 16 1 170 170 170
12 16 1 170 170 170
13 16 1 170 170 170
14 16 1 170 170 170
15 16 1 170 170 170
16 16 1 170 170 170
17 16 1 170 170 170
18 16 1 170 170 170
19 16 1 170 170 170
1 17 1 170 170 170
2 17 1 170 170 170
3 17 1 170 170 170
4 17 1 170 170 170
5 17 1 170 170 170
6 17 1 170 170 170
7 17 1 170 170 170
8 17 1 170 170 170
9 17 1 170 170 170
10 17 1 170 170 170
11 17 1 170 170 170
12 17 1 170 170 170
13 17 1 170 170 170
14 17 1 170 170 170
15 17 1 170 170 170
16 17 1 170 170 170
17 17 1 170 170 170
18 17 1 170 170 170
2 18 1 170 170 170
3 18 1 170 170 170
4 18 1 170 170 170
5 18 1 170 170 170
6 18 1 170 170 170
7 18 1 170 170 170
8 18 1 170 170 170
9 18 1 170 170 170
10 18 1 170 170 170
11 18 1 170 170 170
12 18 1 170 170 170
13 18 1 170 170 170
14 18 1 170 170 170
15 18 1 170 170 170
16 18 1 170 170 170
17 18 1 170 170 170
3 19 1 170 170 170
4 19 1 170 170 170
5 19 1 170 170 170
6 19 1 170 170 170
7 19 1 170 170 170
8 19 1 170 170 170
9 19 1 170 170 170
10 19 1 170 170 170
11 19 1 170 170 170
12 19 1 170 170 170
13 19 1 170 170 170
14 19 1 170 170 170
15 19 1 170 170 170
16 19 1 170 170 170
2 0 2 170 170 170
3 0 2 170 170 170
4 0 2 170 170 170
5 0 2 170 170 170
6 0 2 170 170 170
7 0 2 170 170 170
8 0 2 170 170 170
9 0 2 170 170 170
10 0 2 170 170 170
11 0 2 170 170 170
12 0 2 170 170 170
13 0 2 170 170 170
14 0 2 170 170 170
15 0 2 170 170 170
16 0 2 170 170 170
17 0 2 170 170 170
1 1 2 170 170 170
2 1 2 170 170 170
3 1 2 170 170 170
4 1 2 170 170 170
5 1 2 170 170 170
6 1 2 170 170 170
7 1 2 170 170 170
8 1 2 170 170 170
9 1 2 170 170 170
10 1 2 170 170 170
11 1 2 170 170 170
12 1 2 170 170 170
13 1 2 170 170 170
14 1 2 170 170 170
15 1 2 170 170 170
16 1 2 170 170 170
17 1 2 170 170 170
18 1 2 170 170 170
0 2 2 170 170 170
1 2 2 170 170 170
2 2 2 170 170 170
3 2 2 170 170 170
4 2 2 170 170 170
5 2 2 170 170 170
6 2 2 170 170 170
7 2 2 170 170 170
8 2 2 170 170 170
9 2 2 170 170 170
10 2 2 170 170 170
11 2 2 170 170 170
12 2 2 170 170 170
13 2 2 170 170 170
14 2 2 170 170 170
15 2 2 170 170 170
16 2 2 170 170 170
17 2 2 170 170 170
18 2 2 170 170 170
19 2 2 170 170 170
0 3 2 170 170 170
1 3 2 170 170 170
2 3 2 170 170 170
3 3 2 170 170 170
4 3 2 170 170 170
5 3 2 170 170 170
6 3 2 170 170 170
7 3 2 170 170 170
8 3 2 170 170 170
9 3 2 170 170 170
10 3 2 170 170 170
11 3 2 170 170 170
12 3 2 170 170 170
13 3 2 170 170 170
14 3 2 170 170 170
15 3 2 170 170 170
16 3 2 170 170 170
17 3 2 170 170 170
18 3 2 170 170 170
19 3 2 170 170 170
0 4 2 170 170 170
1 4 2 170 170 170
2 4 2 170 170 170
3 4 2 170 170 170
4 4 2 170 170 170
5 4 2 170 170 170
6 4 2 170 170 170
7 4 2 170 170 170
8 4 2 170 170 170
9 4 2 170 170 170
10 4 2 170 170 170
11 4 2 170 170 170
12 4 2 170 170 170
13 4 2 170 170 170
14 4 2 170 170 170
15 4 2 170 170 170
16 4 2 170 170 170
17 4 2 170 170 170
18 4 2 170 170 170
19 4 2 170 170 170
0 5 2 170 170 170
1 5 2 170 170 170
2 5 2 170 170 170
3 5 2 170 170 170
4 5 2 170 170 170
5 5 2 170 170 170
6 5 2 170 170 170
7 5 2 170 170 170
8 5 2 170 170 170
9 5 2 170 170 170
10 5 2 170 170 170
11 5 2 170 170 170
12 5 2 170 170 170
13 5 2 170 170 170
14 5 2 170 170 170
15 5 2 170 170 170
16 5 2 170 170 170
17 5 2 170 170 170
18 5 2 170 170 170
19 5 2 170 170 170
0 6 2 170 170 170
1 6 2 170 170 170
2 6 2 170 170 170
3 6 2 170 170 170
4 6 2 170 170 170
5 6 2 170 170 170
6 6 2 170 170 170
7 6 2 170 170 170
8 6 2 170 170 170
9 6 2 170 170 170
10 6 2 170 170 170
11 6 2 170 170 170
12 6 2 170 170 170
13 6 2 170 170 170
14 6 2 170 170 170
15 6 2 170 170 170
16 6 2 170 170 170
17 6 2 170 170 170
18 6 2 170 170 170
19 6 2 170 170 170
0 7 2 170 170 170
1 7 2 170 170 170
2 7 2 170 170 170
3 7 2 170 170 170
4 7 2 170 170 170
5 7 2 170 170 170
6 7 2 170 170 170
13 7 2 170 170 170
14 7 2 170 170 170
15 7 2 170 170 170
16 7 2 170 170 170
17 7 2 170 170 170
18 7 2 170 170 170
19 7 2 170 170 170
0 8 2 170 170 170
1 8 2 170 170 170
2 8 2 170 170 170
3 8 2 170 170 170
4 8 2 170 170 170
5 8 2 170 170 170
6 8 2 170 170 170
13 8 2 170 170 170
14 8 2 170 170 170
15 8 2 170 170 170
16 8 2 170 170 170
17 8 2 170 170 170
18 8 2 170 170 170
19 8 2 170 170 170
0 9 2 170 170 170
1 9 2 170 170 170
2 9 2 170 170 170
3 9 2 170 170 170
4 9 2 170 170 170
5 9 2 170 170 170
6 9 2 170 170 170
13 9 2 170 170 170
14 9 2 170 170 170
15 9 2 170 170 170
16 9 2 170 170 170
17 9 2 170 170 170
18 9 2 170 170 170
19 9 2 170 170 170
0 10 2 170 170 170
1 10 2 170 170 170
2 10 2 170 170 170
3 10 2 170 170 170
4 10 2 170 170 170
5 10 2 170 170 170
6 10 2 170 170 170
13 10 2 170 170 170
14 10 2 170 170 170
15 10 2 170 170 170
16 10 2 170 170 170
17 10 2 170 170 170
18 10 2 170 170 170
19 10 2 170 170 170
0 11 2 170 170 170
1 11 2 170 170 170
2 11 2 170 170 170
3 11 2 170 170 170
4 11 2 170 170 170
5 11 2 170 170 170
6 11 2 170 170 170
13 11 2 170 170 170
14 11 2 170 170 170
15 11 2 170 170 170
16 11 2 170 170 170
17 11 2 170 170 170
18 11 2 170 170 170
19 11 2 170 170 170
0 12 2 170 170 170
1 12 2 170 170 170
2 12 2 170 170 170
3 12 2 170 170 170
4 12 2 170 170 170
5 12 2 170 170 170
6 12 2 170 170 170
13 12 2 170 170 170
14 12 2 170 170 170
15 12 2 170 170 170
16 12 2 170 170 170
17 12 2 170 170 170
18 12 2 170 170 170
19 12 2 170 170 170
0 13 2 170 170 170
1 13 2 170 170 170
2 13 2 170 170 170
3 13 2 170 170 170
4 13 2 170 170 170
5 13 2 170 170 170
6 13 2 170 170 170
7 13 2 170 170 170
8 13 2 170 170 170
9 13 2 170 170 170
10 13 2 170 170 170
11 13 2 170 170 170
12 13 2 170 170 170
13 13 2 170 170 170
14 13 2 170 170 170
15 13 2 170 170 170
16 13 2 170 170 170
17 13 2 170 170 170
18 13 2 170 170 170
19 13 2 170 170 170
0 14 2 170 170 170
1 14 2 170 170 170
2 14 2 170 170 170
3 14 2 170 170 170
4 14 2 170 170 170
5 14 2 170 170 170
6 14 2 170 170 170
7 14 2 170 170 170
8 14 2 170 170 170
9 14 2 170 170 170
10 14 2 170 170 170
11 14 2 170 170 170
12 14 2 170 170 170
13 14 2 170 170 170
14 14 2 170 170 170
15 14 2 170 170 170
16 14 2 170 170 170
17 14 2 170 170 170
18 14 2 170 170 170
19 14 2 170 170 170
0 15 2 170 170 170
1 15 2 170 170 170
2 15 2 170 170 170
3 15 2 170 170 170
4 15 2 170 170 170
5 15 2 170 170 170
6 15 2 170 170 170
7 15 2 170 170 170
8 15 2 170 170 170
9 15 2 170 170 170
10 15 2 170 170 170
11 15 2 170 170 170
12 15 2 170 170 170
13 15 2 170 170 170
14 15 2 170 170 170
15 15 2 170 170 170
16 15 2 170 170 170
17 15 2 170 170 170
18 15 2 170 170 170
19 15 2 170 170 170
0 16 2 170 170 170
1 16 2 170 170 170
2 16 2 170 170 170
3 16 2 170 170 170
4 16 2 170 170 170
5 16 2 170 170 170
6 16 2 170 170 170
7 16 2 170 170 170
8 16 2 170 170 170
9 16 2 170 170 170
10 16 2 170 170 170
11 16 2 170 170 170
12 16 2 170 170 170
13 16 2 170 170 170
14 16 2 170 170 170
15 16 2 170 170 170
16 16 2 170 170 170
17 16 2 170 170 170
18 16 2 170 170 170
19 16 2 170 170 170
0 17 2 170 170 170
1 17 2 170 170 170
2 17 2 170 170 170
3 17 2 170 170 170
4 17 2 170 170 170
5 17 2 170 170 170
6 17 2 170 170 170
7 17 2 170 170 170
8 17 2 170 170 170
9 17 2 170 170 170
10 17 2 170 170 170
11 17 2 170 170 170
12 17 2 170 170 170
13 17 2 170 170 170
14 17 2 170 170 170
15 17 2 170 170 170
16 17 2 170 170 170
17 17 2 170 170 170
18 17 2 170 170 170
19 17 2 170 170 170
1 18 2 170 170 170
2 18 2 170 170 170
3 18 2 170 170 170
4 18 2 170 170 170
5 18 2 170 170 170
6 18 2 170 170 170
7 18 2 170 170 170
8 18 2 170 170 170
9 18 2 170 170 170
10 18 2 170 170 170
11 18 2 170 170 170
12 18 2 170 170 170
13 18 2 170 170 170
14 18 2 170 170 170
15 18 2 170 170 170
16 18 2 170 170 170
17 18 2 170 170 170
18 18 2 170 170 170
2 19 2 170 170 170
3 19 2 170 170 170
4 19 2 170 170 170
5 19 2 170 170 170
6 19 2 170 170 170
7 19 2 170 170 170
8 19 2 170 170 170
9 19 2 170 170 170
10 19 2 170 170 170
11 19 2 170 170 170
12 19 2 170 170 170
13 19 2 170 170 170
14 19 2 170 170 170
15 19 2 170 170 170
16 19 2 170 170 170
17 19 2 170 170 170
