ply
format ascii 1.0
comment : MagicaVoxel @ Ephtracy
element vertex 868
property float x
property float y
property float z
property uchar red
property uchar green
property uchar blue
end_header
8 7 0 170 170 170
9 7 0 170 170 170
10 7 0 170 170 170
11 7 0 170 170 170
7 8 0 170 170 170
12 8 0 170 170 170
7 9 0 170 170 170
12 9 0 170 170 170
7 10 0 170 170 170
12 10 0 170 170 170
7 11 0 170 170 170
12 11 0 170 170 170
8 12 0 170 170 170
9 12 0 170 170 170
10 12 0 170 170 170
11 12 0 170 170 170
8 6 1 170 170 170
9 6 1 170 170 170
10 6 1 170 170 170
11 6 1 170 170 170
7 7 1 170 170 170
8 7 1 170 170 170
9 7 1 170 170 170
10 7 1 170 170 170
11 7 1 170 170 170
12 7 1 170 170 170
6 8 1 170 170 170
7 8 1 170 170 170
12 8 1 170 170 170
13 8 1 170 170 170
6 9 1 170 170 170
7 9 1 170 170 170
12 9 1 170 170 170
13 9 1 170 170 170
6 10 1 170 170 170
7 10 1 170 170 170
12 10 1 170 170 170
13 10 1 170 170 170
6 11 1 170 170 170
7 11 1 170 170 170
12 11 1 170 170 170
13 11 1 170 170 170
7 12 1 170 170 170
8 12 1 170 170 170
9 12 1 170 170 170
10 12 1 170 170 170
11 12 1 170 170 170
12 12 1 170 170 170
8 13 1 170 170 170
9 13 1 170 170 170
10 13 1 170 170 170
11 13 1 170 170 170
8 5 2 170 170 170
9 5 2 170 170 170
10 5 2 170 170 170
11 5 2 170 170 170
7 6 2 170 170 170
8 6 2 170 170 170
9 6 2 170 170 170
10 6 2 170 170 170
11 6 2 170 170 170
12 6 2 170 170 170
6 7 2 170 170 170
7 7 2 170 170 170
8 7 2 170 170 170
9 7 2 170 170 170
10 7 2 170 170 170
11 7 2 170 170 170
12 7 2 170 170 170
13 7 2 170 170 170
5 8 2 170 170 170
6 8 2 170 170 170
7 8 2 170 170 170
12 8 2 170 170 170
13 8 2 170 170 170
14 8 2 170 170 170
5 9 2 170 170 170
6 9 2 170 170 170
7 9 2 170 170 170
12 9 2 170 170 170
13 9 2 170 170 170
14 9 2 170 170 170
5 10 2 170 170 170
6 10 2 170 170 170
7 10 2 170 170 170
12 10 2 170 170 170
13 10 2 170 170 170
14 10 2 170 170 170
5 11 2 170 170 170
6 11 2 170 170 170
7 11 2 170 170 170
12 11 2 170 170 170
13 11 2 170 170 170
14 11 2 170 170 170
6 12 2 170 170 170
7 12 2 170 170 170
8 12 2 170 170 170
9 12 2 170 170 170
10 12 2 170 170 170
11 12 2 170 170 170
12 12 2 170 170 170
13 12 2 170 170 170
7 13 2 170 170 170
8 13 2 170 170 170
9 13 2 170 170 170
10 13 2 170 170 170
11 13 2 170 170 170
12 13 2 170 170 170
8 14 2 170 170 170
9 14 2 170 170 170
10 14 2 170 170 170
11 14 2 170 170 170
8 4 3 170 170 170
9 4 3 170 170 170
10 4 3 170 170 170
11 4 3 170 170 170
7 5 3 170 170 170
8 5 3 170 170 170
9 5 3 170 170 170
10 5 3 170 170 170
11 5 3 170 170 170
12 5 3 170 170 170
6 6 3 170 170 170
7 6 3 170 170 170
8 6 3 170 170 170
9 6 3 170 170 170
10 6 3 170 170 170
11 6 3 170 170 170
12 6 3 170 170 170
13 6 3 170 170 170
5 7 3 170 170 170
6 7 3 170 170 170
7 7 3 170 170 170
8 7 3 170 170 170
9 7 3 170 170 170
10 7 3 170 170 170
11 7 3 170 170 170
12 7 3 170 170 170
13 7 3 170 170 170
14 7 3 170 170 170
4 8 3 170 170 170
5 8 3 170 170 170
6 8 3 170 170 170
7 8 3 170 170 170
12 8 3 170 170 170
13 8 3 170 170 170
14 8 3 170 170 170
15 8 3 170 170 170
4 9 3 170 170 170
5 9 3 170 170 170
6 9 3 170 170 170
7 9 3 170 170 170
12 9 3 170 170 170
13 9 3 170 170 170
14 9 3 170 170 170
15 9 3 170 170 170
4 10 3 170 170 170
5 10 3 170 170 170
6 10 3 170 170 170
7 10 3 170 170 170
12 10 3 170 170 170
13 10 3 170 170 170
14 10 3 170 170 170
15 10 3 170 170 170
4 11 3 170 170 170
5 11 3 170 170 170
6 11 3 170 170 170
7 11 3 170 170 170
12 11 3 170 170 170
13 11 3 170 170 170
14 11 3 170 170 170
15 11 3 170 170 170
5 12 3 170 170 170
6 12 3 170 170 170
7 12 3 170 170 170
8 12 3 170 170 170
9 12 3 170 170 170
10 12 3 170 170 170
11 12 3 170 170 170
12 12 3 170 170 170
13 12 3 170 170 170
14 12 3 170 170 170
6 13 3 170 170 170
7 13 3 170 170 170
8 13 3 170 170 170
9 13 3 170 170 170
10 13 3 170 170 170
11 13 3 170 170 170
12 13 3 170 170 170
13 13 3 170 170 170
7 14 3 170 170 170
8 14 3 170 170 170
9 14 3 170 170 170
10 14 3 170 170 170
11 14 3 170 170 170
12 14 3 170 170 170
8 15 3 170 170 170
9 15 3 170 170 170
10 15 3 170 170 170
11 15 3 170 170 170
8 3 4 170 170 170
9 3 4 170 170 170
10 3 4 170 170 170
11 3 4 170 170 170
7 4 4 170 170 170
8 4 4 170 170 170
9 4 4 170 170 170
10 4 4 170 170 170
11 4 4 170 170 170
12 4 4 170 170 170
6 5 4 170 170 170
7 5 4 170 170 170
8 5 4 170 170 170
9 5 4 170 170 170
10 5 4 170 170 170
11 5 4 170 170 170
12 5 4 170 170 170
13 5 4 170 170 170
5 6 4 170 170 170
6 6 4 170 170 170
7 6 4 170 170 170
8 6 4 170 170 170
9 6 4 170 170 170
10 6 4 170 170 170
11 6 4 170 170 170
12 6 4 170 170 170
13 6 4 170 170 170
14 6 4 170 170 170
4 7 4 170 170 170
5 7 4 170 170 170
6 7 4 170 170 170
7 7 4 170 170 170
8 7 4 170 170 170
9 7 4 170 170 170
10 7 4 170 170 170
11 7 4 170 170 170
12 7 4 170 170 170
13 7 4 170 170 170
14 7 4 170 170 170
15 7 4 170 170 170
3 8 4 170 170 170
4 8 4 170 170 170
5 8 4 170 170 170
6 8 4 170 170 170
7 8 4 170 170 170
12 8 4 170 170 170
13 8 4 170 170 170
14 8 4 170 170 170
15 8 4 170 170 170
16 8 4 170 170 170
3 9 4 170 170 170
4 9 4 170 170 170
5 9 4 170 170 170
6 9 4 170 170 170
7 9 4 170 170 170
12 9 4 170 170 170
13 9 4 170 170 170
14 9 4 170 170 170
15 9 4 170 170 170
16 9 4 170 170 170
3 10 4 170 170 170
4 10 4 170 170 170
5 10 4 170 170 170
6 10 4 170 170 170
7 10 4 170 170 170
12 10 4 170 170 170
13 10 4 170 170 170
14 10 4 170 170 170
15 10 4 170 170 170
16 10 4 170 170 170
3 11 4 170 170 170
4 11 4 170 170 170
5 11 4 170 170 170
6 11 4 170 170 170
7 11 4 170 170 170
12 11 4 170 170 170
13 11 4 170 170 170
14 11 4 170 170 170
15 11 4 170 170 170
16 11 4 170 170 170
4 12 4 170 170 170
5 12 4 170 170 170
6 12 4 170 170 170
7 12 4 170 170 170
8 12 4 170 170 170
9 12 4 170 170 170
10 12 4 170 170 170
11 12 4 170 170 170
12 12 4 170 170 170
13 12 4 170 170 170
14 12 4 170 170 170
15 12 4 170 170 170
5 13 4 170 170 170
6 13 4 170 170 170
7 13 4 170 170 170
8 13 4 170 170 170
9 13 4 170 170 170
10 13 4 170 170 170
11 13 4 170 170 170
12 13 4 170 170 170
13 13 4 170 170 170
14 13 4 170 170 170
6 14 4 170 170 170
7 14 4 170 170 170
8 14 4 170 170 170
9 14 4 170 170 170
10 14 4 170 170 170
11 14 4 170 170 170
12 14 4 170 170 170
13 14 4 170 170 170
7 15 4 170 170 170
8 15 4 170 170 170
9 15 4 170 170 170
10 15 4 170 170 170
11 15 4 170 170 170
12 15 4 170 170 170
8 16 4 170 170 170
9 16 4 170 170 170
10 16 4 170 170 170
11 16 4 170 170 170
8 2 5 170 170 170
9 2 5 170 170 170
10 2 5 170 170 170
11 2 5 170 170 170
7 3 5 170 170 170
8 3 5 170 170 170
9 3 5 170 170 170
10 3 5 170 170 170
11 3 5 170 170 170
12 3 5 170 170 170
6 4 5 170 170 170
7 4 5 170 170 170
8 4 5 170 170 170
9 4 5 170 170 170
10 4 5 170 170 170
11 4 5 170 170 170
12 4 5 170 170 170
13 4 5 170 170 170
5 5 5 170 170 170
6 5 5 170 170 170
7 5 5 170 170 170
8 5 5 170 170 170
9 5 5 170 170 170
10 5 5 170 170 170
11 5 5 170 170 170
12 5 5 170 170 170
13 5 5 170 170 170
14 5 5 170 170 170
4 6 5 170 170 170
5 6 5 170 170 170
6 6 5 170 170 170
7 6 5 170 170 170
8 6 5 170 170 170
9 6 5 170 170 170
10 6 5 170 170 170
11 6 5 170 170 170
12 6 5 170 170 170
13 6 5 170 170 170
14 6 5 170 170 170
15 6 5 170 170 170
3 7 5 170 170 170
4 7 5 170 170 170
5 7 5 170 170 170
6 7 5 170 170 170
7 7 5 170 170 170
8 7 5 170 170 170
9 7 5 170 170 170
10 7 5 170 170 170
11 7 5 170 170 170
12 7 5 170 170 170
13 7 5 170 170 170
14 7 5 170 170 170
15 7 5 170 170 170
16 7 5 170 170 170
2 8 5 170 170 170
3 8 5 170 170 170
4 8 5 170 170 170
5 8 5 170 170 170
6 8 5 170 170 170
7 8 5 170 170 170
12 8 5 170 170 170
13 8 5 170 170 170
14 8 5 170 170 170
15 8 5 170 170 170
16 8 5 170 170 170
17 8 5 170 170 170
2 9 5 170 170 170
3 9 5 170 170 170
4 9 5 170 170 170
5 9 5 170 170 170
6 9 5 170 170 170
7 9 5 170 170 170
12 9 5 170 170 170
13 9 5 170 170 170
14 9 5 170 170 170
15 9 5 170 170 170
16 9 5 170 170 170
17 9 5 170 170 170
2 10 5 170 170 170
3 10 5 170 170 170
4 10 5 170 170 170
5 10 5 170 170 170
6 10 5 170 170 170
7 10 5 170 170 170
12 10 5 170 170 170
13 10 5 170 170 170
14 10 5 170 170 170
15 10 5 170 170 170
16 10 5 170 170 170
17 10 5 170 170 170
2 11 5 170 170 170
3 11 5 170 170 170
4 11 5 170 170 170
5 11 5 170 170 170
6 11 5 170 170 170
7 11 5 170 170 170
12 11 5 170 170 170
13 11 5 170 170 170
14 11 5 170 170 170
15 11 5 170 170 170
16 11 5 170 170 170
17 11 5 170 170 170
3 12 5 170 170 170
4 12 5 170 170 170
5 12 5 170 170 170
6 12 5 170 170 170
7 12 5 170 170 170
8 12 5 170 170 170
9 12 5 170 170 170
10 12 5 170 170 170
11 12 5 170 170 170
12 12 5 170 170 170
13 12 5 170 170 170
14 12 5 170 170 170
15 12 5 170 170 170
16 12 5 170 170 170
4 13 5 170 170 170
5 13 5 170 170 170
6 13 5 170 170 170
7 13 5 170 170 170
8 13 5 170 170 170
9 13 5 170 170 170
10 13 5 170 170 170
11 13 5 170 170 170
12 13 5 170 170 170
13 13 5 170 170 170
14 13 5 170 170 170
15 13 5 170 170 170
5 14 5 170 170 170
6 14 5 170 170 170
7 14 5 170 170 170
8 14 5 170 170 170
9 14 5 170 170 170
10 14 5 170 170 170
11 14 5 170 170 170
12 14 5 170 170 170
13 14 5 170 170 170
14 14 5 170 170 170
6 15 5 170 170 170
7 15 5 170 170 170
8 15 5 170 170 170
9 15 5 170 170 170
10 15 5 170 170 170
11 15 5 170 170 170
12 15 5 170 170 170
13 15 5 170 170 170
7 16 5 170 170 170
8 16 5 170 170 170
9 16 5 170 170 170
10 16 5 170 170 170
11 16 5 170 170 170
12 16 5 170 170 170
8 17 5 170 170 170
9 17 5 170 170 170
10 17 5 170 170 170
11 17 5 170 170 170
8 1 6 170 170 170
9 1 6 170 170 170
10 1 6 170 170 170
11 1 6 170 170 170
7 2 6 170 170 170
8 2 6 170 170 170
9 2 6 170 170 170
10 2 6 170 170 170
11 2 6 170 170 170
12 2 6 170 170 170
6 3 6 170 170 170
7 3 6 170 170 170
8 3 6 170 170 170
9 3 6 170 170 170
10 3 6 170 170 170
11 3 6 170 170 170
12 3 6 170 170 170
13 3 6 170 170 170
5 4 6 170 170 170
6 4 6 170 170 170
7 4 6 170 170 170
8 4 6 170 170 170
9 4 6 170 170 170
10 4 6 170 170 170
11 4 6 170 170 170
12 4 6 170 170 170
13 4 6 170 170 170
14 4 6 170 170 170
4 5 6 170 170 170
5 5 6 170 170 170
6 5 6 170 170 170
7 5 6 170 170 170
8 5 6 170 170 170
9 5 6 170 170 170
10 5 6 170 170 170
11 5 6 170 170 170
12 5 6 170 170 170
13 5 6 170 170 170
14 5 6 170 170 170
15 5 6 170 170 170
3 6 6 170 170 170
4 6 6 170 170 170
5 6 6 170 170 170
6 6 6 170 170 170
7 6 6 170 170 170
8 6 6 170 170 170
9 6 6 170 170 170
10 6 6 170 170 170
11 6 6 170 170 170
12 6 6 170 170 170
13 6 6 170 170 170
14 6 6 170 170 170
15 6 6 170 170 170
16 6 6 170 170 170
2 7 6 170 170 170
3 7 6 170 170 170
4 7 6 170 170 170
5 7 6 170 170 170
6 7 6 170 170 170
7 7 6 170 170 170
8 7 6 170 170 170
9 7 6 170 170 170
10 7 6 170 170 170
11 7 6 170 170 170
12 7 6 170 170 170
13 7 6 170 170 170
14 7 6 170 170 170
15 7 6 170 170 170
16 7 6 170 170 170
17 7 6 170 170 170
1 8 6 170 170 170
2 8 6 170 170 170
3 8 6 170 170 170
4 8 6 170 170 170
5 8 6 170 170 170
6 8 6 170 170 170
7 8 6 170 170 170
12 8 6 170 170 170
13 8 6 170 170 170
14 8 6 170 170 170
15 8 6 170 170 170
16 8 6 170 170 170
17 8 6 170 170 170
18 8 6 170 170 170
1 9 6 170 170 170
2 9 6 170 170 170
3 9 6 170 170 170
4 9 6 170 170 170
5 9 6 170 170 170
6 9 6 170 170 170
7 9 6 170 170 170
12 9 6 170 170 170
13 9 6 170 170 170
14 9 6 170 170 170
15 9 6 170 170 170
16 9 6 170 170 170
17 9 6 170 170 170
18 9 6 170 170 170
1 10 6 170 170 170
2 10 6 170 170 170
3 10 6 170 170 170
4 10 6 170 170 170
5 10 6 170 170 170
6 10 6 170 170 170
7 10 6 170 170 170
12 10 6 170 170 170
13 10 6 170 170 170
14 10 6 170 170 170
15 10 6 170 170 170
16 10 6 170 170 170
17 10 6 170 170 170
18 10 6 170 170 170
1 11 6 170 170 170
2 11 6 170 170 170
3 11 6 170 170 170
4 11 6 170 170 170
5 11 6 170 170 170
6 11 6 170 170 170
7 11 6 170 170 170
12 11 6 170 170 170
13 11 6 170 170 170
14 11 6 170 170 170
15 11 6 170 170 170
16 11 6 170 170 170
17 11 6 170 170 170
18 11 6 170 170 170
2 12 6 170 170 170
3 12 6 170 170 170
4 12 6 170 170 170
5 12 6 170 170 170
6 12 6 170 170 170
7 12 6 170 170 170
8 12 6 170 170 170
9 12 6 170 170 170
10 12 6 170 170 170
11 12 6 170 170 170
12 12 6 170 170 170
13 12 6 170 170 170
14 12 6 170 170 170
15 12 6 170 170 170
16 12 6 170 170 170
17 12 6 170 170 170
3 13 6 170 170 170
4 13 6 170 170 170
5 13 6 170 170 170
6 13 6 170 170 170
7 13 6 170 170 170
8 13 6 170 170 170
9 13 6 170 170 170
10 13 6 170 170 170
11 13 6 170 170 170
12 13 6 170 170 170
13 13 6 170 170 170
14 13 6 170 170 170
15 13 6 170 170 170
16 13 6 170 170 170
4 14 6 170 170 170
5 14 6 170 170 170
6 14 6 170 170 170
7 14 6 170 170 170
8 14 6 170 170 170
9 14 6 170 170 170
10 14 6 170 170 170
11 14 6 170 170 170
12 14 6 170 170 170
13 14 6 170 170 170
14 14 6 170 170 170
15 14 6 170 170 170
5 15 6 170 170 170
6 15 6 170 170 170
7 15 6 170 170 170
8 15 6 170 170 170
9 15 6 170 170 170
10 15 6 170 170 170
11 15 6 170 170 170
12 15 6 170 170 170
13 15 6 170 170 170
14 15 6 170 170 170
6 16 6 170 170 170
7 16 6 170 170 170
8 16 6 170 170 170
9 16 6 170 170 170
10 16 6 170 170 170
11 16 6 170 170 170
12 16 6 170 170 170
13 16 6 170 170 170
7 17 6 170 170 170
8 17 6 170 170 170
9 17 6 170 170 170
10 17 6 170 170 170
11 17 6 170 170 170
12 17 6 170 170 170
8 18 6 170 170 170
9 18 6 170 170 170
10 18 6 170 170 170
11 18 6 170 170 170
8 1 7 170 170 170
9 1 7 170 170 170
10 1 7 170 170 170
11 1 7 170 170 170
7 2 7 170 170 170
8 2 7 170 170 170
9 2 7 170 170 170
10 2 7 170 170 170
11 2 7 170 170 170
12 2 7 170 170 170
6 3 7 170 170 170
7 3 7 170 170 170
8 3 7 170 170 170
9 3 7 170 170 170
10 3 7 170 170 170
11 3 7 170 170 170
12 3 7 170 170 170
13 3 7 170 170 170
5 4 7 170 170 170
6 4 7 170 170 170
7 4 7 170 170 170
8 4 7 170 170 170
9 4 7 170 170 170
10 4 7 170 170 170
11 4 7 170 170 170
12 4 7 170 170 170
13 4 7 170 170 170
14 4 7 170 170 170
4 5 7 170 170 170
5 5 7 170 170 170
6 5 7 170 170 170
7 5 7 170 170 170
8 5 7 170 170 170
9 5 7 170 170 170
10 5 7 170 170 170
11 5 7 170 170 170
12 5 7 170 170 170
13 5 7 170 170 170
14 5 7 170 170 170
15 5 7 170 170 170
3 6 7 170 170 170
4 6 7 170 170 170
5 6 7 170 170 170
6 6 7 170 170 170
7 6 7 170 170 170
8 6 7 170 170 170
9 6 7 170 170 170
10 6 7 170 170 170
11 6 7 170 170 170
12 6 7 170 170 170
13 6 7 170 170 170
14 6 7 170 170 170
15 6 7 170 170 170
16 6 7 170 170 170
2 7 7 170 170 170
3 7 7 170 170 170
4 7 7 170 170 170
5 7 7 170 170 170
6 7 7 170 170 170
7 7 7 170 170 170
8 7 7 170 170 170
9 7 7 170 170 170
10 7 7 170 170 170
11 7 7 170 170 170
12 7 7 170 170 170
13 7 7 170 170 170
14 7 7 170 170 170
15 7 7 170 170 170
16 7 7 170 170 170
17 7 7 170 170 170
1 8 7 170 170 170
2 8 7 170 170 170
3 8 7 170 170 170
4 8 7 170 170 170
5 8 7 170 170 170
6 8 7 170 170 170
7 8 7 170 170 170
12 8 7 170 170 170
13 8 7 170 170 170
14 8 7 170 170 170
15 8 7 170 170 170
16 8 7 170 170 170
17 8 7 170 170 170
18 8 7 170 170 170
1 9 7 170 170 170
2 9 7 170 170 170
3 9 7 170 170 170
4 9 7 170 170 170
5 9 7 170 170 170
6 9 7 170 170 170
7 9 7 170 170 170
12 9 7 170 170 170
13 9 7 170 170 170
14 9 7 170 170 170
15 9 7 170 170 170
16 9 7 170 170 170
17 9 7 170 170 170
18 9 7 170 170 170
1 10 7 170 170 170
2 10 7 170 170 170
3 10 7 170 170 170
4 10 7 170 170 170
5 10 7 170 170 170
6 10 7 170 170 170
7 10 7 170 170 170
12 10 7 170 170 170
13 10 7 170 170 170
14 10 7 170 170 170
15 10 7 170 170 170
16 10 7 170 170 170
17 10 7 170 170 170
18 10 7 170 170 170
1 11 7 170 170 170
2 11 7 170 170 170
3 11 7 170 170 170
4 11 7 170 170 170
5 11 7 170 170 170
6 11 7 170 170 170
7 11 7 170 170 170
12 11 7 170 170 170
13 11 7 170 170 170
14 11 7 170 170 170
15 11 7 170 170 170
16 11 7 170 170 170
17 11 7 170 170 170
18 11 7 170 170 170
2 12 7 170 170 170
3 12 7 170 170 170
4 12 7 170 170 170
5 12 7 170 170 170
6 12 7 170 170 170
7 12 7 170 170 170
8 12 7 170 170 170
9 12 7 170 170 170
10 12 7 170 170 170
11 12 7 170 170 170
12 12 7 170 170 170
13 12 7 170 170 170
14 12 7 170 170 170
15 12 7 170 170 170
16 12 7 170 170 170
17 12 7 170 170 170
3 13 7 170 170 170
4 13 7 170 170 170
5 13 7 170 170 170
6 13 7 170 170 170
7 13 7 170 170 170
8 13 7 170 170 170
9 13 7 170 170 170
10 13 7 170 170 170
11 13 7 170 170 170
12 13 7 170 170 170
13 13 7 170 170 170
14 13 7 170 170 170
15 13 7 170 170 170
16 13 7 170 170 170
4 14 7 170 170 170
5 14 7 170 170 170
6 14 7 170 170 170
7 14 7 170 170 170
8 14 7 170 170 170
9 14 7 170 170 170
10 14 7 170 170 170
11 14 7 170 170 170
12 14 7 170 170 170
13 14 7 170 170 170
14 14 7 170 170 170
15 14 7 170 170 170
5 15 7 170 170 170
6 15 7 170 170 170
7 15 7 170 170 170
8 15 7 170 170 170
9 15 7 170 170 170
10 15 7 170 170 170
11 15 7 170 170 170
12 15 7 170 170 170
13 15 7 170 170 170
14 15 7 170 170 170
6 16 7 170 170 170
7 16 7 170 170 170
8 16 7 170 170 170
9 16 7 170 170 170
10 16 7 170 170 170
11 16 7 170 170 170
12 16 7 170 170 170
13 16 7 170 170 170
7 17 7 170 170 170
8 17 7 170 170 170
9 17 7 170 170 170
10 17 7 170 170 170
11 17 7 170 170 170
12 17 7 170 170 170
8 18 7 170 170 170
9 18 7 170 170 170
10 18 7 170 170 170
11 18 7 170 170 170
